<svg xmlns="http://www.w3.org/2000/svg" width="26.863" height="26.827" viewBox="0 0 26.863 26.827">
  <g id="icon_phone-white" transform="translate(1.003 1)">
    <g id="Group_1276" data-name="Group 1276" transform="translate(0 5.563)">
      <path id="Path_5619" data-name="Path 5619" d="M49.645,47.938c-.232.009-.465.013-.7.013a18.868,18.868,0,0,1-18.89-18.846h0v-.416" transform="translate(-30.057 -28.688)" fill="none" stroke="#14723e" stroke-linecap="round" stroke-linejoin="round" stroke-width="2"/>
      <path id="Path_5620" data-name="Path 5620" d="M31.86,37.194l4.248-2.4L34.89,29.215l-4.722-.522" transform="translate(-30.033 -28.687)" fill="none" stroke="#14723e" stroke-linecap="round" stroke-linejoin="round" stroke-width="2"/>
      <path id="Path_5621" data-name="Path 5621" d="M47.6,45.415l-.5-4.544L41.51,39.715,39.3,43.8" transform="translate(-28.031 -26.261)" fill="none" stroke="#14723e" stroke-linecap="round" stroke-linejoin="round" stroke-width="2"/>
    </g>
    <path id="Path_6381" data-name="Path 6381" d="M39.987,24.128A12.757,12.757,0,0,1,52.74,36.889" transform="translate(-27.879 -24.128)" fill="none" stroke="#14723e" stroke-linecap="round" stroke-linejoin="round" stroke-width="2"/>
    <path id="Path_6382" data-name="Path 6382" d="M40.318,28.685a6.87,6.87,0,0,1,6.868,6.873" transform="translate(-27.807 -23.125)" fill="none" stroke="#14723e" stroke-linecap="round" stroke-linejoin="round" stroke-width="2"/>
  </g>
</svg>
