<svg xmlns="http://www.w3.org/2000/svg" width="71.562" height="29.354" viewBox="0 0 71.562 29.354">
  <g id="icon_free-shipping" transform="translate(0 0.75)">
    <g id="icon_free-delivery" transform="translate(20.273)">
      <ellipse id="Ellipse_95" data-name="Ellipse 95" cx="3.896" cy="3.949" rx="3.896" ry="3.949" transform="translate(8.679 19.777)" fill="#fff" stroke="#afca05" stroke-linecap="round" stroke-linejoin="round" stroke-width="1.5"/>
      <ellipse id="Ellipse_96" data-name="Ellipse 96" cx="3.896" cy="3.949" rx="3.896" ry="3.949" transform="translate(31.439 19.777)" fill="#fff" stroke="#afca05" stroke-linecap="round" stroke-linejoin="round" stroke-width="1.5"/>
      <path id="Rectangle_2767" data-name="Rectangle 2767" d="M0,0H6.764a1.59,1.59,0,0,1,1.59,1.59v0a1.59,1.59,0,0,1-1.59,1.59H0a0,0,0,0,1,0,0V0A0,0,0,0,1,0,0Z" transform="translate(28.98 4.226)" fill="#edf5b9" stroke="#afca05" stroke-linecap="round" stroke-linejoin="round" stroke-width="1.5"/>
      <ellipse id="Ellipse_92" data-name="Ellipse 92" cx="1.478" cy="1.498" rx="1.478" ry="1.498" transform="translate(11.095 22.228)" fill="#edf5b9"/>
      <path id="Path_5494" data-name="Path 5494" d="M-26.036,13.065H-34.63v9.452h2.512A3.911,3.911,0,0,1-28.3,19.373a3.91,3.91,0,0,1,3.815,3.145h.295a2.051,2.051,0,0,0,2.037-2.065V17A3.906,3.906,0,0,0-26.036,13.065Z" transform="translate(63.638 0.404)" fill="#edf5b9" stroke="#afca05" stroke-linecap="round" stroke-linejoin="round" stroke-width="1.5"/>
      <ellipse id="Ellipse_93" data-name="Ellipse 93" cx="1.478" cy="1.498" rx="1.478" ry="1.498" transform="translate(33.857 22.228)" fill="#edf5b9"/>
      <line id="Line_82" data-name="Line 82" x2="1.505" y2="6.013" transform="translate(36.35 7.304)" fill="none" stroke="#afca05" stroke-linecap="round" stroke-linejoin="round" stroke-width="1.5"/>
      <path id="Path_7354" data-name="Path 7354" d="M-55.188-10.292H-77.295a1.508,1.508,0,0,0-1.5,1.518V11.112a1.507,1.507,0,0,0,1.5,1.518h3.383A3.911,3.911,0,0,1-70.1,9.485a3.91,3.91,0,0,1,3.815,3.145h12.59v-21.4A1.508,1.508,0,0,0-55.188-10.292Z" transform="translate(82.67 10.292)" fill="#fff" stroke="#afca05" stroke-linecap="round" stroke-linejoin="round" stroke-width="1.5"/>
      <line id="Line_83" data-name="Line 83" x1="2.811" y2="2.849" transform="translate(29.288 10.399)" fill="none" stroke="#afca05" stroke-linecap="round" stroke-linejoin="round" stroke-width="1.5"/>
      <line id="Line_84" data-name="Line 84" x1="3.321" transform="translate(37.854 16.816)" fill="none" stroke="#afca05" stroke-linecap="round" stroke-linejoin="round" stroke-width="1.5"/>
      <ellipse id="Ellipse_94" data-name="Ellipse 94" cx="5.955" cy="6.035" rx="5.955" ry="6.035" transform="translate(10.317 4.521)" fill="none" stroke="#afca05" stroke-linecap="round" stroke-linejoin="round" stroke-width="1.5"/>
      <line id="Line_85" data-name="Line 85" y2="3.051" transform="translate(15.612 8.084)" fill="none" stroke="#14723e" stroke-linecap="round" stroke-linejoin="round" stroke-width="1.5"/>
      <line id="Line_86" data-name="Line 86" x2="3.099" transform="translate(15.656 11.135)" fill="none" stroke="#14723e" stroke-linecap="round" stroke-linejoin="round" stroke-width="1.5"/>
      <line id="Line_87" data-name="Line 87" x2="45.072" transform="translate(0 27.854)" fill="none" stroke="#afca05" stroke-linecap="round" stroke-linejoin="round" stroke-width="1.5"/>
    </g>
    <g id="icon_shine" transform="translate(65.345 0)">
      <path id="Path_5676" data-name="Path 5676" d="M323.734,292.857a2.475,2.475,0,0,1-2.454-2.462.328.328,0,1,0-.656,0,2.459,2.459,0,0,1-2.454,2.462.329.329,0,0,0-.327.331h0a.329.329,0,0,0,.327.331h0a2.464,2.464,0,0,1,2.452,2.467.328.328,0,1,0,.656,0,2.461,2.461,0,0,1,2.447-2.475h.007a.331.331,0,0,0,0-.662h0Z" transform="translate(-317.842 -290.064)" fill="#efefef"/>
    </g>
    <g id="icon_shine-2" data-name="icon_shine" transform="translate(0 8.961)">
      <path id="Path_5676-2" data-name="Path 5676" d="M327.174,294.5a3.926,3.926,0,0,1-3.888-3.911.519.519,0,1,0-1.038,0,3.9,3.9,0,0,1-3.888,3.911.522.522,0,0,0-.519.525h0a.522.522,0,0,0,.518.526h0a3.909,3.909,0,0,1,3.884,3.918.519.519,0,1,0,1.038,0,3.9,3.9,0,0,1,3.876-3.932h.011a.526.526,0,0,0,0-1.051h0Z" transform="translate(-317.842 -290.064)" fill="#efefef"/>
    </g>
  </g>
</svg>
