<svg xmlns="http://www.w3.org/2000/svg" width="27.844" height="26.38" viewBox="0 0 27.844 26.38">
  <g id="icon_bathroom" transform="translate(0.625 0.625)">
    <g id="Group_3158" data-name="Group 3158" transform="translate(0)">
      <g id="Group_3042" data-name="Group 3042" transform="translate(0)">
        <path id="Rectangle_3875" data-name="Rectangle 3875" d="M-318.656,413h23.434v5.644a5.643,5.643,0,0,1-5.643,5.643h-12.148a5.643,5.643,0,0,1-5.644-5.643h0V413Z" transform="translate(320.24 -399.153)" fill="none" stroke="#14723e" stroke-linecap="round" stroke-linejoin="round" stroke-width="1.25"/>
        <line id="Line_527" data-name="Line 527" x2="26.594" transform="translate(0 13.844)" fill="none" stroke="#14723e" stroke-linecap="round" stroke-linejoin="round" stroke-width="1.25"/>
        <circle id="Ellipse_273" data-name="Ellipse 273" cx="2.421" cy="2.421" r="2.421" transform="translate(17.061 5.162)" fill="none" stroke="#14723e" stroke-linecap="round" stroke-linejoin="round" stroke-width="1.25"/>
        <circle id="Ellipse_274" data-name="Ellipse 274" cx="1.866" cy="1.866" r="1.866" transform="translate(7.404 6.623)" fill="none" stroke="#14723e" stroke-linecap="round" stroke-linejoin="round" stroke-width="1.25"/>
        <circle id="Ellipse_275" data-name="Ellipse 275" cx="1.247" cy="1.247" r="1.247" transform="translate(14.128)" fill="none" stroke="#14723e" stroke-linecap="round" stroke-linejoin="round" stroke-width="1.25"/>
        <path id="Path_7438" data-name="Path 7438" d="M-309.039,404.517a3.469,3.469,0,0,0-3.468-3.468h0a3.469,3.469,0,0,0-3.468,3.468v9.591" transform="translate(320.508 -400.347)" fill="none" stroke="#14723e" stroke-linecap="round" stroke-linejoin="round" stroke-width="1.25"/>
      </g>
    </g>
  </g>
</svg>
