<svg xmlns="http://www.w3.org/2000/svg" width="24.293" height="25.925" viewBox="0 0 24.293 25.925">
  <g id="icon_gymnastic" transform="translate(0.625 0.625)">
    <path id="Path_7439" data-name="Path 7439" d="M-278.228,401.519a1.4,1.4,0,0,0-1.4,1.4v7.384l-2.759,10.757h0a1.394,1.394,0,0,0-.049.364,1.4,1.4,0,0,0,1.4,1.4,1.4,1.4,0,0,0,1.377-1.147l1.707-6.7h3.926l-2.175,9.376h0a1.413,1.413,0,0,0-.072.437,1.4,1.4,0,0,0,1.4,1.4,1.4,1.4,0,0,0,1.379-1.157l2.16-9.313,2.386,9.4h0a1.4,1.4,0,0,0,1.36,1.072,1.4,1.4,0,0,0,1.4-1.4,1.48,1.48,0,0,0-.047-.354h0l-2.833-10.814a4.484,4.484,0,0,0-4.411-3.693h-3.365v-7.009A1.4,1.4,0,0,0-278.228,401.519Zm-8.183,6.73a2.8,2.8,0,0,0-2.8,2.8,2.8,2.8,0,0,0,2.8,2.8,2.8,2.8,0,0,0,2.8-2.8A2.8,2.8,0,0,0-286.41,408.249Z" transform="translate(289.214 -401.519)" fill="none" stroke="#14723e" stroke-linecap="round" stroke-linejoin="round" stroke-width="1.25"/>
  </g>
</svg>
