<svg xmlns="http://www.w3.org/2000/svg" width="164.798" height="39.526" viewBox="0 0 164.798 39.526"><g opacity="0.493" style="mix-blend-mode:luminosity;isolation:isolate"><path d="M101.017,81.327c.12-1.206.487-1.686,1.71-1.686h.487c1.222,0,1.342.487,1.222,1.686l-.367,2.53h-3.419Zm-.855-4.1c-2.2,0-3.546,1.08-3.907,3.61l-1.1,7.47c-.367,2.53.728,3.617,2.932,3.617h9.529l.367-2.892h-6.478c-1.222,0-1.589-.481-1.222-2.286h8.06l.855-5.909c.367-2.53-.728-3.61-2.932-3.61Zm15.393,0c-2.2,0-3.546,1.08-3.907,3.61l-1.1,7.47c-.367,2.53.728,3.617,2.932,3.617h6.965l.367-2.892H116.91c-1.222,0-1.589-.481-1.342-1.686l.855-5.547c.247-1.206.608-1.686,1.836-1.686h3.907l.367-2.892-6.978.007ZM30.177,87.348c.247-1.568.728-2.167,1.95-2.167h1.83l-.608,3.854H31.513C30.291,89.041,30.05,88.553,30.177,87.348ZM27.239,77.229l-.367,2.892h6.11c1.222,0,1.71.487,1.342,2.167H29.436a3.445,3.445,0,0,0-3.786,3.136L25.155,88.2c-.487,2.773,1.469,3.86,3.666,3.86,2.317,0,2.811-.244,4.641-2.049,0,1.561.855,1.93,2.685,1.93h3.907l.361-2.892h-2.2L39.44,80.49c.361-2.53-.728-3.254-2.932-3.254C36.521,77.229,27.239,77.229,27.239,77.229Zm25.289,0-1.71,11.805h-2.07c-1.229,0-1.469-.481-1.342-1.686l.975-6.871c.367-2.53-.735-3.254-2.932-3.254H41.79l-.367,2.892c1.836,0,2.077.487,1.836,2.286L42.4,88.428c-.367,2.53.728,3.617,2.932,3.617,2.685,0,2.811-.119,5.376-2.049,0,1.561.855,1.93,2.685,1.93h4.4l.367-2.892c-2.07,0-2.317-.481-2.07-2.286l1.342-9.519ZM84.4,79.153c0-1.568-.855-1.93-2.685-1.93h-4.4l-.367,2.892c2.07,0,2.317.487,2.07,2.286L77.677,91.92h4.888l1.71-11.812h2.07c1.229,0,1.469.487,1.342,1.686L86.713,88.3c-.367,2.53.735,3.617,2.932,3.617H93.31l.367-2.892c-1.836,0-2.07-.481-1.836-2.286l.855-6.021c.361-2.53-.735-3.61-2.932-3.61-2.671,0-2.8.119-5.362,2.042Zm58.525-5.777-.614,3.854h-2.2l-.361,2.892h2.2l-1.222,8.2c-.367,2.53.728,3.617,2.932,3.617h4.154l.367-2.892h-1.1c-1.222,0-1.469-.481-1.342-1.686l1.1-7.227h1.957l.367-2.892h-1.95l.608-3.854ZM11.486,84.574h4.521c1.222,0,1.589.481,1.342,1.686l-.614,3.491c-.247,1.206-.487,1.68-1.7,1.68H10.511Zm1.342-9.638h4.521c1.222,0,1.589.487,1.342,1.686L18.2,79.515c-.247,1.206-.614,1.686-1.836,1.686H11.84ZM4.881,71.682l-.487,3.254h1.1c1.836,0,1.957.487,1.71,2.293L5.489,89.16C5.242,90.971,5,91.445,3.172,91.445h-1.1L1.582,94.7h16c2.324,0,4.04-1.08,4.274-3.254l.735-5.547c.247-1.93-.614-2.773-1.71-3.129a3.565,3.565,0,0,0,2.564-3.136L24.06,75.9c.487-3.254-.735-4.216-3.786-4.216Zm118.613-.6-.367,2.892c1.836,0,1.957.487,1.71,2.286l-2.2,15.672h4.888l1.7-11.812h2.07c1.222,0,1.469.487,1.342,1.686l-.982,6.509c-.361,2.53.735,3.617,2.932,3.617h3.66l.367-2.892c-1.836,0-2.077-.481-1.836-2.286l.855-6.021c.367-2.53-.728-3.61-2.932-3.61-2.685,0-2.811.119-5.376,2.042l.608-4.816C130.3,71.821,129.2,71.1,127,71.1Zm-62.9,0-.367,2.892c1.836,0,1.957.487,1.71,2.293L59.74,91.94h4.882l1.1-7.714h1.342c1.222,0,1.7.6,1.469,1.93l-.367,2.167c-.487,2.892,1.71,3.617,3.546,3.617h3.058l.367-2.892c-1.836,0-2.077-.244-1.957-1.449l.367-2.648c.247-2.167-.861-2.892-2.317-2.892H70.011l2.564-1.924H75.14l.361-2.892H74.031c-1.957,0-3.058.843-4.4,2.049l-3.66,3.373,1.1-8.314c.367-2.53-.728-3.254-2.932-3.254ZM-15.64,85.062c0,9.882,9.282,17.714,23.086,17.714,9.536,0,19.059-3.38,24.561-8.557H28.221a30.121,30.121,0,0,1-17.343,5.3c-10.751,0-17.71-6.384-17.71-14.579,0-10.007,10.5-18.432,22.965-18.432A19.849,19.849,0,0,1,32.868,74.95h3.172c-3.546-6.759-11.974-11.7-22.485-11.7C-1.957,63.25-15.64,73.006-15.64,85.062Z" transform="translate(15.64 -63.25)"/></g></svg>