<svg xmlns="http://www.w3.org/2000/svg" width="282.932" height="63.637" viewBox="0 0 282.932 63.637">
  <g id="logo_htheme" style="isolation: isolate">
    <g id="Group_3021" data-name="Group 3021">
      <g id="Group_2138" data-name="Group 2138" transform="translate(140.012 37.087)">
        <path id="Path_21" data-name="Path 21" d="M540.929,276.69h-4.358v-1.621h4.358Z" transform="translate(-536.571 -268.297)" fill="#afca05"/>
        <path id="Path_22" data-name="Path 22" d="M550.13,277.238a.909.909,0,0,0-.444-.818,4.723,4.723,0,0,0-1.473-.5,7.607,7.607,0,0,1-1.718-.546,2.284,2.284,0,0,1-1.511-2.108,2.377,2.377,0,0,1,.98-1.935,3.881,3.881,0,0,1,2.49-.778,4.041,4.041,0,0,1,2.6.794,2.516,2.516,0,0,1,.992,2.059H550.03a1.236,1.236,0,0,0-.431-.963,1.659,1.659,0,0,0-1.146-.385,1.79,1.79,0,0,0-1.084.306.963.963,0,0,0-.419.818.813.813,0,0,0,.39.719,5.386,5.386,0,0,0,1.577.517,7.481,7.481,0,0,1,1.864.62,2.633,2.633,0,0,1,1,.864,2.2,2.2,0,0,1,.328,1.224,2.329,2.329,0,0,1-1,1.955,4.3,4.3,0,0,1-2.631.749,4.663,4.663,0,0,1-1.968-.4,3.238,3.238,0,0,1-1.344-1.091,2.577,2.577,0,0,1-.482-1.5h1.959a1.414,1.414,0,0,0,.54,1.1,2.1,2.1,0,0,0,1.32.385,2.048,2.048,0,0,0,1.212-.3A.932.932,0,0,0,550.13,277.238Z" transform="translate(-538.937 -266.969)" fill="#afca05"/>
        <path id="Path_23" data-name="Path 23" d="M559.82,270.2a3.164,3.164,0,0,1,2.5-1.141q2.872,0,2.913,3.266v5.846h-2.017V272.4a1.761,1.761,0,0,0-.4-1.31,1.651,1.651,0,0,0-1.183-.384,1.944,1.944,0,0,0-1.81,1.075v6.391H557.8v-12.7h2.017Z" transform="translate(-542.764 -265.471)" fill="#afca05"/>
        <path id="Path_24" data-name="Path 24" d="M570.827,275.113a5.257,5.257,0,0,1,.523-2.369,3.811,3.811,0,0,1,1.469-1.621,4.156,4.156,0,0,1,2.175-.567,3.933,3.933,0,0,1,2.951,1.166,4.578,4.578,0,0,1,1.224,3.092l.009.471a5.3,5.3,0,0,1-.511,2.365,3.764,3.764,0,0,1-1.461,1.612,4.185,4.185,0,0,1-2.2.571,3.9,3.9,0,0,1-3.042-1.262,4.817,4.817,0,0,1-1.141-3.361Zm2.017.174a3.6,3.6,0,0,0,.572,2.163,1.864,1.864,0,0,0,1.594.781,1.843,1.843,0,0,0,1.589-.794,3.971,3.971,0,0,0,.569-2.323,3.547,3.547,0,0,0-.585-2.15,1.977,1.977,0,0,0-3.159-.012A3.892,3.892,0,0,0,572.844,275.286Z" transform="translate(-546.563 -266.969)" fill="#afca05"/>
        <path id="Path_25" data-name="Path 25" d="M593.079,275.286a5.312,5.312,0,0,1-.946,3.312,3.3,3.3,0,0,1-4.906.268v4.242H585.21V270.722h1.859l.083.91a2.967,2.967,0,0,1,2.415-1.075,3.066,3.066,0,0,1,2.578,1.22,5.452,5.452,0,0,1,.934,3.385Zm-2.009-.174a3.723,3.723,0,0,0-.536-2.125A1.742,1.742,0,0,0,589,272.2a1.858,1.858,0,0,0-1.776,1.017v3.969a1.875,1.875,0,0,0,1.793,1.041,1.741,1.741,0,0,0,1.507-.773A4.1,4.1,0,0,0,591.07,275.113Z" transform="translate(-550.758 -266.969)" fill="#afca05"/>
      </g>
      <path id="Path_30" data-name="Path 30" d="M513.262,258.949a15.145,15.145,0,0,1-12.255,5.642,14.439,14.439,0,0,1-10.393-4.03,14.067,14.067,0,0,1-4.443-9.957h34.906a10.237,10.237,0,0,0,.079-2.134,19.867,19.867,0,0,0-20.15-19.835,19.184,19.184,0,0,0-14.32,6.006,20.014,20.014,0,0,0-5.831,14.461,19.672,19.672,0,0,0,5.871,14.382,19.435,19.435,0,0,0,14.359,5.927,21.461,21.461,0,0,0,15.755-6.9ZM491.25,237.131a14.289,14.289,0,0,1,9.837-3.675,14.048,14.048,0,0,1,9.718,3.675,15.211,15.211,0,0,1,4.958,9.206H486.172A15.5,15.5,0,0,1,491.25,237.131Z" transform="translate(-380.308 -217.538)" fill="#afca05"/>
      <path id="Path_7716" data-name="Path 7716" d="M723.381,252.672V240.2q0-5.8,2.673-8.732a9.275,9.275,0,0,1,7.2-2.927,4.105,4.105,0,0,1,.723.048v2.927a4.107,4.107,0,0,0-.723-.048,6.106,6.106,0,0,0-4.96,2.207q-1.832,2.208-1.83,6.525v12.474Z" transform="translate(-451.046 -217.51)" fill="#14723e"/>
      <path id="Path_7717" data-name="Path 7717" d="M363.711,234.5a12.407,12.407,0,1,1-12.379-12.378,10.625,10.625,0,0,1,5.371,1.392,11.131,11.131,0,0,1,3.926,3.742V212.907h3.083Zm-12.379-9.452a8.952,8.952,0,0,0-6.623,2.759,9.65,9.65,0,0,0-.024,13.409,9.475,9.475,0,0,0,13.318,0,9.743,9.743,0,0,0-.024-13.434A8.97,8.97,0,0,0,351.332,225.045Z" transform="translate(-338.905 -212.907)" fill="#14723e"/>
      <path id="Path_7718" data-name="Path 7718" d="M383.28,218.418a2.044,2.044,0,0,1-2.794,0,1.869,1.869,0,0,1-.578-1.415,1.816,1.816,0,0,1,.578-1.367,2.046,2.046,0,0,1,2.794,0,1.816,1.816,0,0,1,.578,1.367A1.869,1.869,0,0,1,383.28,218.418Zm-2.938,28.715V223.144h3.083v23.989Z" transform="translate(-350.864 -213.549)" fill="#14723e"/>
      <path id="Path_7719" data-name="Path 7719" d="M402.195,250.72a12.39,12.39,0,1,1,12.379-12.378v11.994h-3.083V245.2a9.532,9.532,0,0,1-3.757,3.982A10.556,10.556,0,0,1,402.195,250.72Zm-6.6-5.685a9.028,9.028,0,0,0,6.647,2.759,8.913,8.913,0,0,0,6.6-2.735,9.742,9.742,0,0,0,.025-13.434,8.892,8.892,0,0,0-6.623-2.735,9.046,9.046,0,0,0-6.671,2.735,9.588,9.588,0,0,0,.024,13.41Z" transform="translate(-353.74 -216.752)" fill="#14723e"/>
      <path id="Path_7720" data-name="Path 7720" d="M438.923,226.27h-6.069v9.644q0,7.677,6.069,8.588v2.975a9.706,9.706,0,0,1-6.647-3.286q-2.456-2.853-2.5-8.18V215.763h3.083v7.581h6.069Z" transform="translate(-365.408 -213.748)" fill="#14723e"/>
      <path id="Path_7721" data-name="Path 7721" d="M457.027,222.119a10.3,10.3,0,0,1,7.707,2.951q2.89,2.95,2.89,8.8v12.617H464.54V233.874q0-4.366-2.023-6.6a7.045,7.045,0,0,0-5.491-2.231,7.12,7.12,0,0,0-5.491,2.184q-2.023,2.183-2.023,6.4v12.858H446.43V212.907h3.083v13.147A8.179,8.179,0,0,1,457.027,222.119Z" transform="translate(-370.267 -212.907)" fill="#14723e"/>
      <path id="Path_7722" data-name="Path 7722" d="M550,250.72a9.432,9.432,0,0,1-5.949-1.918,6.113,6.113,0,0,1-2.481-5.086h2.986a3.67,3.67,0,0,0,1.565,3.119,6.452,6.452,0,0,0,3.926,1.151,6.229,6.229,0,0,0,3.95-1.1,3.693,3.693,0,0,0,1.4-3.071,3.613,3.613,0,0,0-1.421-2.927,8.853,8.853,0,0,0-3.324-1.535q-1.951-.479-3.9-1.032a6.958,6.958,0,0,1-3.323-2.063,5.728,5.728,0,0,1-1.373-4.006,5.478,5.478,0,0,1,2.24-4.558,8.839,8.839,0,0,1,5.563-1.727,8.735,8.735,0,0,1,5.587,1.751,5.76,5.76,0,0,1,2.215,4.774h-2.986a3.279,3.279,0,0,0-1.373-2.759,5.577,5.577,0,0,0-3.444-1.032,5.476,5.476,0,0,0-3.372,1.008,3.234,3.234,0,0,0-1.349,2.735,3.062,3.062,0,0,0,1.349,2.638,8.965,8.965,0,0,0,3.3,1.392q1.951.431,3.9,1.031a7.248,7.248,0,0,1,3.348,2.183,6.269,6.269,0,0,1,1.445,4.174,5.891,5.891,0,0,1-2.312,5.038A9.8,9.8,0,0,1,550,250.72Z" transform="translate(-398.016 -216.752)" fill="#14723e"/>
      <path id="Path_7723" data-name="Path 7723" d="M572.75,218.418a2.044,2.044,0,0,1-2.794,0,1.872,1.872,0,0,1-.578-1.415,1.819,1.819,0,0,1,.578-1.367,2.046,2.046,0,0,1,2.794,0,1.813,1.813,0,0,1,.578,1.367A1.867,1.867,0,0,1,572.75,218.418Zm-2.938,28.715V223.144h3.083v23.989Z" transform="translate(-406.127 -213.549)" fill="#14723e"/>
      <path id="Path_7724" data-name="Path 7724" d="M607.327,225.963a9.445,9.445,0,0,1,7.3,2.951q2.72,2.95,2.721,8.8v12.617h-3.082V237.718q0-4.366-1.854-6.6a6.258,6.258,0,0,0-5.082-2.231,6.325,6.325,0,0,0-5.106,2.231q-1.879,2.231-1.879,6.6v12.617h-3.082V237.718q0-4.366-1.854-6.6a6.258,6.258,0,0,0-5.082-2.231,6.325,6.325,0,0,0-5.106,2.231q-1.88,2.231-1.878,6.6v12.617h-3.083V237.718q0-5.854,2.721-8.8a10.486,10.486,0,0,1,12.6-1.512,7.87,7.87,0,0,1,3.227,4.27,7.821,7.821,0,0,1,3.251-4.27A9.7,9.7,0,0,1,607.327,225.963Z" transform="translate(-409.301 -216.752)" fill="#14723e"/>
      <path id="Path_7725" data-name="Path 7725" d="M640.537,229.585a12.362,12.362,0,1,1-3.636,8.756A12,12,0,0,1,640.537,229.585ZM656,231.624a8.888,8.888,0,0,0-6.622-2.735,9.046,9.046,0,0,0-6.671,2.735,9.588,9.588,0,0,0,.024,13.41,9.028,9.028,0,0,0,6.647,2.759,8.912,8.912,0,0,0,6.6-2.735A9.741,9.741,0,0,0,656,231.624Z" transform="translate(-425.822 -216.752)" fill="#14723e"/>
      <path id="Path_7726" data-name="Path 7726" d="M704.886,231.821a12.407,12.407,0,1,0-8.79,21.134,11.11,11.11,0,0,0,5.346-1.319,10.753,10.753,0,0,0,3.95-3.574v2.3a8.335,8.335,0,0,1-2.721,6.309,10.161,10.161,0,0,1-6.526,2.567,13.648,13.648,0,0,1-7.523-1.734l-1.149,2.52a19.2,19.2,0,0,0,8.623,2.122,12.745,12.745,0,0,0,8.79-3.6,11.908,11.908,0,0,0,3.637-8.756v-9.212A11.908,11.908,0,0,0,704.886,231.821Zm-2.143,15.473a8.913,8.913,0,0,1-6.6,2.735,9.03,9.03,0,0,1-6.646-2.759,9.427,9.427,0,0,1,6.646-16.145,8.891,8.891,0,0,1,6.623,2.735,9.744,9.744,0,0,1-.024,13.434Z" transform="translate(-439.463 -217.41)" fill="#14723e"/>
      <ellipse id="Ellipse_276" data-name="Ellipse 276" cx="1.953" cy="1.945" rx="1.953" ry="1.945" transform="translate(238.116 30.506)" fill="#14723e"/>
    </g>
    <g id="Group_2140" data-name="Group 2140" transform="translate(199.596 50.466)">
      <rect id="Rectangle_3346" data-name="Rectangle 3346" width="83.336" height="13.171" rx="3" transform="translate(0 0)" fill="#9c9c9c"/>
      <g id="Group_2139" data-name="Group 2139" transform="translate(2.882 2.343)">
        <path id="Path_32" data-name="Path 32" d="M618.466,295.764v.027a1.808,1.808,0,0,1,.147.2,1.418,1.418,0,0,1,.146.3,2.858,2.858,0,0,1,.11.386,2.187,2.187,0,0,1,.046.451,2.313,2.313,0,0,1-.179.913,2.2,2.2,0,0,1-.492.732,2.292,2.292,0,0,1-.754.486,2.517,2.517,0,0,1-.958.177,2.486,2.486,0,0,1-.954-.177,2.227,2.227,0,0,1-1.243-1.232,2.4,2.4,0,0,1-.177-.926,2.435,2.435,0,0,1,.177-.932,2.215,2.215,0,0,1,.493-.74,2.277,2.277,0,0,1,.75-.486,2.5,2.5,0,0,1,.954-.178c.164,0,.3.007.42.018s.23.026.342.042.234.029.361.04.29.019.484.019h1.443v.891Zm-.593,1.331a1.623,1.623,0,0,0-.1-.561,1.369,1.369,0,0,0-.269-.451,1.292,1.292,0,0,0-.42-.306,1.4,1.4,0,0,0-1.11,0,1.271,1.271,0,0,0-.425.306,1.382,1.382,0,0,0-.27.451,1.7,1.7,0,0,0,0,1.121,1.382,1.382,0,0,0,.27.451,1.217,1.217,0,0,0,.425.3,1.466,1.466,0,0,0,1.11,0,1.234,1.234,0,0,0,.42-.3,1.369,1.369,0,0,0,.269-.451A1.622,1.622,0,0,0,617.873,297.1Z" transform="translate(-614.156 -292.374)" fill="#fff"/>
        <path id="Path_33" data-name="Path 33" d="M622.5,294.965h4.21v.863h-1.562v3.535h-1.1v-3.535H622.5Z" transform="translate(-617.057 -292.447)" fill="#fff"/>
        <path id="Path_34" data-name="Path 34" d="M630.978,294.9c.005.109.01.223.013.341s.005.229.005.332h.018a1.15,1.15,0,0,1,.234-.312,1.758,1.758,0,0,1,1.213-.487,1.8,1.8,0,0,1,.755.145,1.535,1.535,0,0,1,.527.392,1.582,1.582,0,0,1,.311.578,2.385,2.385,0,0,1,.1.7v4.9h-1.1v-4.6a2.35,2.35,0,0,0-.045-.473,1.073,1.073,0,0,0-.156-.382.739.739,0,0,0-.292-.254,1.012,1.012,0,0,0-.456-.092.983.983,0,0,0-.776.345,1.389,1.389,0,0,0-.3.945V299.3h-1.1v-3.272c0-.169,0-.354-.005-.554s-.008-.391-.013-.573Z" transform="translate(-619.636 -292.379)" fill="#fff"/>
        <path id="Path_35" data-name="Path 35" d="M641.574,292.362a.8.8,0,0,1,.169-.5,1.358,1.358,0,0,1,.47-.377,2.862,2.862,0,0,1,.721-.24,4.628,4.628,0,0,1,.932-.086,5.245,5.245,0,0,1,.817.058c.24.04.448.082.626.13a4.26,4.26,0,0,1,.538.181l-.247.922c-.153-.067-.319-.13-.5-.191a4.93,4.93,0,0,0-.557-.132,3.8,3.8,0,0,0-.694-.059,2.122,2.122,0,0,0-.712.1c-.183.068-.274.17-.274.31a.391.391,0,0,0,.241.336,5.717,5.717,0,0,0,.808.337,5.126,5.126,0,0,1,.74.359,3.263,3.263,0,0,1,.7.549,2.748,2.748,0,0,1,.526.769,2.37,2.37,0,0,1,.2,1.013,2.407,2.407,0,0,1-.169.9,2.2,2.2,0,0,1-.48.737,2.237,2.237,0,0,1-.758.495,2.644,2.644,0,0,1-1,.182,2.614,2.614,0,0,1-.968-.173,2.272,2.272,0,0,1-.758-.481,2.167,2.167,0,0,1-.5-.732,2.363,2.363,0,0,1-.179-.932,2.141,2.141,0,0,1,.16-.841,2.077,2.077,0,0,1,.425-.649,2.127,2.127,0,0,1,.6-.436,2.173,2.173,0,0,1,.661-.21c.048-.012.091-.021.128-.027a.709.709,0,0,1,.1-.008l.027-.046a.8.8,0,0,1-.164-.045c-.061-.018-.138-.044-.233-.077s-.211-.077-.352-.132l-.32-.127a1.593,1.593,0,0,1-.347-.19,1.049,1.049,0,0,1-.274-.285A.725.725,0,0,1,641.574,292.362Zm3.435,3.476a1.559,1.559,0,0,0-.1-.554,1.307,1.307,0,0,0-.268-.441,1.212,1.212,0,0,0-.419-.291,1.4,1.4,0,0,0-.545-.1,1.315,1.315,0,0,0-.551.109,1.213,1.213,0,0,0-.41.3,1.309,1.309,0,0,0-.26.441,1.74,1.74,0,0,0,0,1.109,1.312,1.312,0,0,0,.26.44,1.209,1.209,0,0,0,.414.3,1.324,1.324,0,0,0,.547.109,1.341,1.341,0,0,0,.554-.109,1.259,1.259,0,0,0,.419-.3,1.279,1.279,0,0,0,.264-.445A1.682,1.682,0,0,0,645.009,295.838Z" transform="translate(-623.584 -291.112)" fill="#fff"/>
        <path id="Path_36" data-name="Path 36" d="M651.258,299.364h-1.1v-4.4h1.1Z" transform="translate(-626.674 -292.447)" fill="#fff"/>
        <path id="Path_37" data-name="Path 37" d="M657.034,297.383a1.579,1.579,0,0,1-.667.568,2.072,2.072,0,0,1-.886.2,2.15,2.15,0,0,1-.913-.186,2.059,2.059,0,0,1-.685-.5,2.236,2.236,0,0,1-.434-.741,2.646,2.646,0,0,1-.151-.9,2.593,2.593,0,0,1,.156-.9,2.258,2.258,0,0,1,.438-.736,2.039,2.039,0,0,1,.684-.495,2.15,2.15,0,0,1,.9-.182,1.871,1.871,0,0,1,.877.2,1.8,1.8,0,0,1,.621.519h.018v-.61h1.1v4.408h-1.032v-.645Zm-2.639-1.563a1.682,1.682,0,0,0,.087.541,1.312,1.312,0,0,0,.255.454,1.2,1.2,0,0,0,.414.31,1.337,1.337,0,0,0,.564.114,1.292,1.292,0,0,0,.546-.114,1.349,1.349,0,0,0,.423-.305,1.31,1.31,0,0,0,.273-.449,1.577,1.577,0,0,0,.1-.551,1.549,1.549,0,0,0-.1-.541,1.354,1.354,0,0,0-.273-.454,1.312,1.312,0,0,0-.423-.31,1.292,1.292,0,0,0-.546-.114,1.337,1.337,0,0,0-.564.114,1.2,1.2,0,0,0-.414.31,1.314,1.314,0,0,0-.255.454A1.687,1.687,0,0,0,654.395,295.819Zm1.069-4.662h.9l-.091,1.818h-.712Z" transform="translate(-627.764 -291.112)" fill="#fff"/>
        <path id="Path_38" data-name="Path 38" d="M664.678,291.087a2.1,2.1,0,0,1,1.073.268,2.211,2.211,0,0,1,.763.746,3.647,3.647,0,0,1,.452,1.126,6.214,6.214,0,0,1,.151,1.4,6.553,6.553,0,0,1-.142,1.4,3.5,3.5,0,0,1-.438,1.118,2.19,2.19,0,0,1-.758.741,2.157,2.157,0,0,1-1.1.268,2.128,2.128,0,0,1-1.1-.268,2.207,2.207,0,0,1-.754-.741,3.43,3.43,0,0,1-.433-1.118,6.735,6.735,0,0,1-.138-1.4,6.415,6.415,0,0,1,.147-1.4,3.546,3.546,0,0,1,.448-1.126,2.22,2.22,0,0,1,.758-.746A2.073,2.073,0,0,1,664.678,291.087Zm0,.891a.976.976,0,0,0-.571.168,1.3,1.3,0,0,0-.4.464,2.5,2.5,0,0,0-.242.7,6.251,6.251,0,0,0-.11.881H666a5.465,5.465,0,0,0-.1-.868,2.6,2.6,0,0,0-.242-.7,1.351,1.351,0,0,0-.4-.472A.97.97,0,0,0,664.678,291.978Zm-1.324,3.073a6.116,6.116,0,0,0,.11.882,2.483,2.483,0,0,0,.242.7,1.278,1.278,0,0,0,.4.457.99.99,0,0,0,.575.163.977.977,0,0,0,.58-.171,1.36,1.36,0,0,0,.4-.466,2.516,2.516,0,0,0,.242-.7,5.406,5.406,0,0,0,.1-.864Z" transform="translate(-630.879 -291.087)" fill="#fff"/>
        <path id="Path_39" data-name="Path 39" d="M674.259,296.127a1.367,1.367,0,0,0-.292-.245,2.151,2.151,0,0,0-.388-.168,1.838,1.838,0,0,0-.571-.077,2.372,2.372,0,0,0-.389.031,1.245,1.245,0,0,0-.329.1.712.712,0,0,0-.228.164.329.329,0,0,0-.087.231.344.344,0,0,0,.1.245.721.721,0,0,0,.261.164,1.656,1.656,0,0,0,.374.091,3.466,3.466,0,0,0,.447.027h.795v.782h-.721a3.241,3.241,0,0,0-1,.118.426.426,0,0,0-.343.409.325.325,0,0,0,.1.241.69.69,0,0,0,.255.155,1.733,1.733,0,0,0,.356.086,2.793,2.793,0,0,0,.4.027,2.668,2.668,0,0,0,.676-.073,2.4,2.4,0,0,0,.457-.164,1.018,1.018,0,0,0,.337-.245l.567.645c-.031.031-.093.086-.188.168a1.916,1.916,0,0,1-.4.251,3.33,3.33,0,0,1-.635.227,3.541,3.541,0,0,1-.9.1,3.952,3.952,0,0,1-.817-.082,2.491,2.491,0,0,1-.68-.241,1.358,1.358,0,0,1-.466-.4,1,1,0,0,1-.059-1.031,1.1,1.1,0,0,1,.283-.332,1.207,1.207,0,0,1,.356-.2,1.815,1.815,0,0,1,.343-.082v-.018a1.827,1.827,0,0,1-.32-.109,1.22,1.22,0,0,1-.306-.2,1,1,0,0,1-.234-.3.85.85,0,0,1-.091-.4.931.931,0,0,1,.16-.536,1.356,1.356,0,0,1,.443-.405,2.283,2.283,0,0,1,.661-.254,3.667,3.667,0,0,1,.817-.087,2.93,2.93,0,0,1,.8.1,2.607,2.607,0,0,1,.561.222,1.453,1.453,0,0,1,.357.264,1.785,1.785,0,0,1,.182.218Z" transform="translate(-633.839 -292.374)" fill="#fff"/>
        <path id="Path_40" data-name="Path 40" d="M682.5,295.764v.027a1.8,1.8,0,0,1,.147.2,1.421,1.421,0,0,1,.146.3,2.859,2.859,0,0,1,.109.386,2.138,2.138,0,0,1,.046.451,2.325,2.325,0,0,1-.178.913,2.213,2.213,0,0,1-.493.732,2.291,2.291,0,0,1-.754.486,2.517,2.517,0,0,1-.958.177,2.485,2.485,0,0,1-.954-.177,2.223,2.223,0,0,1-1.242-1.232,2.383,2.383,0,0,1-.178-.926,2.421,2.421,0,0,1,.178-.932,2.2,2.2,0,0,1,.492-.74,2.284,2.284,0,0,1,.75-.486,2.5,2.5,0,0,1,.954-.178c.164,0,.3.007.42.018s.23.026.343.042.233.029.36.04.29.019.485.019h1.442v.891Zm-.593,1.331a1.625,1.625,0,0,0-.1-.561,1.369,1.369,0,0,0-.269-.451,1.291,1.291,0,0,0-.42-.306,1.4,1.4,0,0,0-1.109,0,1.27,1.27,0,0,0-.425.306,1.369,1.369,0,0,0-.269.451,1.687,1.687,0,0,0,0,1.121,1.369,1.369,0,0,0,.269.451,1.215,1.215,0,0,0,.425.3,1.465,1.465,0,0,0,1.109,0,1.234,1.234,0,0,0,.42-.3,1.369,1.369,0,0,0,.269-.451A1.624,1.624,0,0,0,681.908,297.1Z" transform="translate(-636.419 -292.374)" fill="#fff"/>
        <path id="Path_41" data-name="Path 41" d="M688.545,293.629c.006.109.01.223.014.341s0,.229,0,.332h.018a1.158,1.158,0,0,1,.234-.312,1.758,1.758,0,0,1,1.213-.487,1.8,1.8,0,0,1,.756.145,1.539,1.539,0,0,1,.526.392,1.593,1.593,0,0,1,.312.578,2.408,2.408,0,0,1,.1.7v4.9h-1.1v-4.6a2.345,2.345,0,0,0-.045-.473,1.081,1.081,0,0,0-.155-.382.747.747,0,0,0-.292-.254,1.015,1.015,0,0,0-.457-.092.984.984,0,0,0-.776.345,1.389,1.389,0,0,0-.3.945v2.327h-1.1v-3.272c0-.169,0-.354-.005-.554s-.007-.391-.013-.573Zm.575-2.472h.913l-.091,1.818h-.721Z" transform="translate(-639.65 -291.112)" fill="#fff"/>
        <path id="Path_42" data-name="Path 42" d="M703.166,295.764v.027a1.9,1.9,0,0,1,.146.2,1.421,1.421,0,0,1,.146.3,2.858,2.858,0,0,1,.11.386,2.142,2.142,0,0,1,.046.451,2.324,2.324,0,0,1-.178.913,2.213,2.213,0,0,1-.493.732,2.284,2.284,0,0,1-.754.486,2.517,2.517,0,0,1-.958.177,2.488,2.488,0,0,1-.954-.177,2.223,2.223,0,0,1-1.242-1.232,2.384,2.384,0,0,1-.178-.926,2.422,2.422,0,0,1,.178-.932,2.2,2.2,0,0,1,.492-.74,2.291,2.291,0,0,1,.75-.486,2.5,2.5,0,0,1,.954-.178c.164,0,.3.007.42.018s.23.026.343.042.233.029.36.04.29.019.485.019h1.443v.891Zm-.594,1.331a1.608,1.608,0,0,0-.1-.561,1.359,1.359,0,0,0-.269-.451,1.293,1.293,0,0,0-.42-.306,1.4,1.4,0,0,0-1.11,0,1.27,1.27,0,0,0-.425.306,1.369,1.369,0,0,0-.269.451,1.688,1.688,0,0,0,0,1.121,1.369,1.369,0,0,0,.269.451,1.215,1.215,0,0,0,.425.3,1.465,1.465,0,0,0,1.11,0,1.235,1.235,0,0,0,.42-.3,1.359,1.359,0,0,0,.269-.451A1.607,1.607,0,0,0,702.572,297.1Z" transform="translate(-643.603 -292.374)" fill="#fff"/>
        <path id="Path_43" data-name="Path 43" d="M711.451,298.655a1.578,1.578,0,0,1-.667.568,2.072,2.072,0,0,1-.886.2,2.15,2.15,0,0,1-.913-.186,2.058,2.058,0,0,1-.685-.5,2.233,2.233,0,0,1-.434-.741,2.647,2.647,0,0,1-.151-.9,2.592,2.592,0,0,1,.156-.9,2.256,2.256,0,0,1,.438-.736,2.04,2.04,0,0,1,.684-.495,2.15,2.15,0,0,1,.9-.182,1.872,1.872,0,0,1,.877.2,1.8,1.8,0,0,1,.621.519h.018v-.61h1.1V299.3h-1.032v-.645Zm-2.639-1.563a1.683,1.683,0,0,0,.087.541,1.312,1.312,0,0,0,.255.454,1.2,1.2,0,0,0,.414.31,1.336,1.336,0,0,0,.564.114,1.291,1.291,0,0,0,.546-.114,1.348,1.348,0,0,0,.423-.305,1.309,1.309,0,0,0,.273-.449,1.576,1.576,0,0,0,.1-.551,1.547,1.547,0,0,0-.1-.541,1.354,1.354,0,0,0-.273-.454,1.312,1.312,0,0,0-.423-.31,1.291,1.291,0,0,0-.546-.114,1.336,1.336,0,0,0-.564.114,1.2,1.2,0,0,0-.414.31,1.315,1.315,0,0,0-.255.454A1.689,1.689,0,0,0,708.812,297.091Z" transform="translate(-646.683 -292.384)" fill="#fff"/>
        <path id="Path_44" data-name="Path 44" d="M719.1,298.473a4.012,4.012,0,0,1,.5.149,1.993,1.993,0,0,1,.479.255,1.277,1.277,0,0,1,.36.4,1.179,1.179,0,0,1,.142.6,1.323,1.323,0,0,1-.16.658,1.918,1.918,0,0,1-.393.5,2.364,2.364,0,0,1-.489.34,2.445,2.445,0,0,1-.449.186l-.768-.555c.134-.048.27-.1.409-.168a2.113,2.113,0,0,0,.378-.219,1.169,1.169,0,0,0,.273-.273.621.621,0,0,0,.023-.655.636.636,0,0,0-.205-.2,1.147,1.147,0,0,0-.269-.114c-.1-.027-.189-.05-.274-.068s-.217-.045-.356-.082a3.381,3.381,0,0,1-.443-.151,2.67,2.67,0,0,1-.466-.25,1.77,1.77,0,0,1-.416-.387,1.909,1.909,0,0,1-.3-.56,2.319,2.319,0,0,1-.114-.764,2.493,2.493,0,0,1,.193-1.006,2.148,2.148,0,0,1,.525-.741,2.32,2.32,0,0,1,.761-.46,2.6,2.6,0,0,1,.913-.16,3.047,3.047,0,0,1,.516.046,2.551,2.551,0,0,1,.493.138,2.07,2.07,0,0,1,.429.23,1.452,1.452,0,0,1,.333.321l-.676.7a1.222,1.222,0,0,0-.4-.367,1.281,1.281,0,0,0-.667-.16,1.483,1.483,0,0,0-.525.091,1.177,1.177,0,0,0-.42.268,1.233,1.233,0,0,0-.279.441,1.682,1.682,0,0,0-.1.6,1.4,1.4,0,0,0,.123.627,1.14,1.14,0,0,0,.324.4,1.481,1.481,0,0,0,.461.236C718.742,298.381,718.919,298.43,719.1,298.473Z" transform="translate(-649.76 -292.374)" fill="#fff"/>
        <path id="Path_45" data-name="Path 45" d="M723.831,300.378a.673.673,0,0,1,.215-.5.713.713,0,0,1,.516-.209.736.736,0,0,1,.511.2.636.636,0,0,1,.22.491.673.673,0,0,1-.215.5.714.714,0,0,1-.516.209.728.728,0,0,1-.279-.055.779.779,0,0,1-.232-.145.669.669,0,0,1-.16-.218A.638.638,0,0,1,723.831,300.378Z" transform="translate(-652.286 -294.098)" fill="#fff"/>
        <path id="Path_46" data-name="Path 46" d="M727.33,300.378a.673.673,0,0,1,.215-.5.713.713,0,0,1,.516-.209.736.736,0,0,1,.511.2.636.636,0,0,1,.22.491.673.673,0,0,1-.215.5.714.714,0,0,1-.516.209.727.727,0,0,1-.279-.055.779.779,0,0,1-.232-.145.669.669,0,0,1-.16-.218A.638.638,0,0,1,727.33,300.378Z" transform="translate(-653.503 -294.098)" fill="#fff"/>
        <path id="Path_47" data-name="Path 47" d="M730.83,300.378a.673.673,0,0,1,.215-.5.713.713,0,0,1,.516-.209.736.736,0,0,1,.511.2.636.636,0,0,1,.22.491.673.673,0,0,1-.215.5.714.714,0,0,1-.516.209.727.727,0,0,1-.279-.055.779.779,0,0,1-.232-.145.668.668,0,0,1-.16-.218A.637.637,0,0,1,730.83,300.378Z" transform="translate(-654.72 -294.098)" fill="#fff"/>
      </g>
    </g>
  </g>
</svg>
