<svg id="logo_maestro" xmlns="http://www.w3.org/2000/svg" width="44.162" height="34.271" viewBox="0 0 44.162 34.271">
  <rect id="Rectangle_3586" data-name="Rectangle 3586" width="11.94" height="21.457" transform="translate(16.11 2.918)" fill="#6c6bbd"/>
  <path id="Path_7142" data-name="Path 7142" d="M88.3,145.433A13.62,13.62,0,0,1,93.509,134.7a13.648,13.648,0,1,0,0,21.459A13.621,13.621,0,0,1,88.3,145.433" transform="translate(-71.428 -131.786)" fill="#eb001b"/>
  <path id="Path_7143" data-name="Path 7143" d="M298.567,145.433a13.647,13.647,0,0,1-22.081,10.731,13.649,13.649,0,0,0,0-21.459,13.647,13.647,0,0,1,22.081,10.729" transform="translate(-254.405 -131.786)" fill="#0099df"/>
  <path id="Path_7144" data-name="Path 7144" d="M163.4,406.128a1.679,1.679,0,0,1,.562.1l-.244.742a1.25,1.25,0,0,0-.492-.091c-.514,0-.773.332-.773.932v2.032h-.788v-3.624h.781v.44a1.072,1.072,0,0,1,.956-.531m-2.915.812H159.2v1.638c0,.363.128.6.525.6a1.457,1.457,0,0,0,.7-.2l.226.675a1.86,1.86,0,0,1-.985.281c-.934,0-1.259-.5-1.259-1.342V406.94h-.735v-.72h.735v-1.1h.8v1.1h1.288Zm-10.09.773a.933.933,0,0,1,.965-.879.9.9,0,0,1,.917.879Zm2.7.319a1.737,1.737,0,0,0-1.72-1.9,1.9,1.9,0,0,0,.055,3.8,2.2,2.2,0,0,0,1.485-.507l-.387-.584a1.732,1.732,0,0,1-1.052.379,1,1,0,0,1-1.084-.886h2.689c.007-.1.015-.2.015-.3m3.466-.888a2.31,2.31,0,0,0-1.129-.31c-.432,0-.691.159-.691.425,0,.241.274.31.615.355l.37.053c.79.113,1.266.447,1.266,1.083,0,.691-.606,1.184-1.651,1.184a2.618,2.618,0,0,1-1.569-.47l.37-.615a1.934,1.934,0,0,0,1.206.379c.538,0,.826-.159.826-.44,0-.2-.206-.319-.639-.379l-.37-.053c-.812-.113-1.253-.478-1.253-1.069,0-.72.595-1.16,1.51-1.16a2.705,2.705,0,0,1,1.477.379Zm9.722-.266a1.216,1.216,0,0,0-.452.084,1.077,1.077,0,0,0-.6.609,1.316,1.316,0,0,0,0,.945,1.141,1.141,0,0,0,.239.37,1.087,1.087,0,0,0,.361.239,1.184,1.184,0,0,0,.452.086,1.2,1.2,0,0,0,.452-.086,1.073,1.073,0,0,0,.361-.239,1.046,1.046,0,0,0,.243-.37,1.294,1.294,0,0,0,0-.945,1.024,1.024,0,0,0-.243-.369,1.108,1.108,0,0,0-.361-.241,1.231,1.231,0,0,0-.452-.084m0-.75a2.034,2.034,0,0,1,.781.148,1.856,1.856,0,0,1,.62.4,1.814,1.814,0,0,1,.412.606,2.031,2.031,0,0,1,0,1.521,1.815,1.815,0,0,1-.412.605,1.863,1.863,0,0,1-.62.4,2.161,2.161,0,0,1-1.561,0,1.846,1.846,0,0,1-1.029-1.009,2.057,2.057,0,0,1,0-1.521,1.834,1.834,0,0,1,1.029-1.007,2.022,2.022,0,0,1,.781-.148m-20.491,1.9a1.1,1.1,0,1,1,1.1,1.158,1.086,1.086,0,0,1-1.1-1.158m2.933,0v-1.813h-.788v.44a1.381,1.381,0,0,0-1.145-.531,1.906,1.906,0,0,0,0,3.807,1.385,1.385,0,0,0,1.145-.531v.44h.788Zm-4.441,1.811v-2.274a1.349,1.349,0,0,0-1.425-1.441,1.4,1.4,0,0,0-1.273.644,1.335,1.335,0,0,0-1.2-.644,1.206,1.206,0,0,0-1.063.538v-.447h-.788v3.624h.8v-2.008a.847.847,0,0,1,.883-.965c.525,0,.792.341.792.956v2.017h.8v-2.008a.857.857,0,0,1,.886-.965c.54,0,.8.341.8.956v2.017Z" transform="translate(-131.312 -375.687)" fill="#231f20"/>
</svg>
