<svg xmlns="http://www.w3.org/2000/svg" width="134.901" height="26.959" viewBox="0 0 134.901 26.959"><g opacity="0.499" style="mix-blend-mode:luminosity;isolation:isolate"><path d="M220.224,410.912v-4.7c0-.5.246-.742.493-.742h4.93a.652.652,0,0,1,.739.742v4.7a.65.65,0,0,1-.739.734h-4.93c-.247,0-.493-.242-.493-.734" transform="translate(-220.224 -405.469)" fill="#d6101e" fill-rule="evenodd"/><path d="M364.783,431.439l-13.311-25.477c-.25-.252-.5-.493-.741-.493H338.9a.529.529,0,0,0-.5.493l-11.83,22.262a.766.766,0,0,1-.491.247l-11.339-9.152a.753.753,0,0,1,0-.993l12.57-11.621a.693.693,0,0,0-.49-1.236h-8.386a2.12,2.12,0,0,0-1.481.743l-9.858,9.4h-2.953a.871.871,0,0,1-.5-.251v-9.15c0-.5-.241-.743-.491-.743h-6.9a.652.652,0,0,0-.739.743v25.474a.787.787,0,0,0,.739.742h6.9c.25,0,.491-.494.491-.742v-9.4a.535.535,0,0,1,.5-.495H307.1l11.1,9.894a2.11,2.11,0,0,0,1.473.742h13.56c.249,0,.491-.246.741-.494l1.971-3.958.25-.247h17.254a.241.241,0,0,1,.242.247l2.221,3.958a.533.533,0,0,0,.491.494h7.645c.491,0,.982-.742.741-.989m-14.551-9.647h-10.84c-.249,0-.249-.247-.249-.495l5.424-10.635a.458.458,0,0,1,.74,0l5.175,10.635C350.732,421.545,350.482,421.792,350.233,421.792Z" transform="translate(-229.945 -405.469)" fill="#d6101e" fill-rule="evenodd"/><path d="M266.22,411.646h17.748c.247,0,.494-.242.494-.734v-4.7c0-.5-.246-.743-.494-.743h-54.23a.784.784,0,0,0-.739.742v4.7a.783.783,0,0,0,.739.734h6.656a.88.88,0,0,1,.246.5v19.538a.788.788,0,0,0,.739.742h6.656a.788.788,0,0,0,.739-.742V412.148a.535.535,0,0,1,.494-.5h12.077c.247,0,.247.251.247.5v19.538a.788.788,0,0,0,.739.742h25.635c.247,0,.494-.494.494-.742v-5.195c0-.494-.246-.742-.494-.742H266.22c-.246,0-.494,0-.494-.247v-3.463c0-.247.247-.247.494-.247h14.3a.655.655,0,0,0,.739-.742V416.6a.656.656,0,0,0-.739-.743h-14.3a.869.869,0,0,1-.494-.242v-3.464a.536.536,0,0,1,.494-.5" transform="translate(-221.357 -405.469)" fill="#d6101e" fill-rule="evenodd"/></g></svg>