<svg xmlns="http://www.w3.org/2000/svg" width="147.64" height="50.239" viewBox="0 0 147.64 50.239"><g opacity="0.497" style="mix-blend-mode:luminosity;isolation:isolate"><path d="M156.6,51.062c-7.851,0-14.266-6.026-14.266-14.873v-.111c0-8.24,5.806-14.874,13.713-14.874,8.459,0,13.272,6.912,13.272,14.487a1.984,1.984,0,0,1-1.991,1.991H146.651c.608,6.193,4.976,9.677,10.063,9.677a11.678,11.678,0,0,0,8.24-3.318,1.839,1.839,0,0,1,3.1,1.326,1.835,1.835,0,0,1-.664,1.382A14.528,14.528,0,0,1,156.6,51.062m8.46-16.532c-.441-5.2-3.428-9.733-9.124-9.733-4.976,0-8.735,4.148-9.288,9.733Z" transform="translate(-100.658 -14.994)" fill="#7c7068"/><path d="M251.725,2.156a2.129,2.129,0,1,1,4.257,0V33.523a2.081,2.081,0,0,1-2.1,2.16,2.127,2.127,0,0,1-2.157-2.16Z" transform="translate(-178.014)" fill="#7c7068"/><path d="M285.127,24.492a2.128,2.128,0,1,1,4.255,0V49.319a2.08,2.08,0,0,1-2.1,2.158,2.124,2.124,0,0,1-2.155-2.158Z" transform="translate(-201.636 -15.795)" fill="#7c7068"/><path d="M316.037,36.244v-.11a14.857,14.857,0,0,1,25.156-10.783,1.992,1.992,0,0,1,.662,1.492,2.039,2.039,0,0,1-2.044,2.046,2.2,2.2,0,0,1-1.383-.5c-2.046-1.878-4.367-3.429-7.8-3.429-5.8,0-10.231,4.922-10.231,11.06v.112c0,6.194,4.537,11.115,10.507,11.115a11.434,11.434,0,0,0,7.963-3.484,1.686,1.686,0,0,1,1.217-.553,2,2,0,0,1,1.934,1.934,1.927,1.927,0,0,1-.553,1.327,14.38,14.38,0,0,1-10.782,4.589,14.676,14.676,0,0,1-14.651-14.818" transform="translate(-223.495 -14.994)" fill="#7c7068"/><path d="M418.463,42.635v-.11c0-6.029,4.978-9.235,12.219-9.235a30.314,30.314,0,0,1,8.792,1.218v-1c0-5.142-3.15-7.8-8.513-7.8a17.859,17.859,0,0,0-7.41,1.6,2.166,2.166,0,0,1-.773.167,1.889,1.889,0,0,1-1.883-1.824,1.954,1.954,0,0,1,1.161-1.77,22.538,22.538,0,0,1,9.345-1.936c4.038,0,7.135,1.052,9.236,3.153,1.936,1.937,2.929,4.7,2.929,8.35v15.65a2.02,2.02,0,0,1-2.046,2.1,1.962,1.962,0,0,1-2.046-1.991v-2.6a12.527,12.527,0,0,1-10.339,4.919c-5.31,0-10.672-3.039-10.672-8.9m21.067-2.211V37.659a29.882,29.882,0,0,0-8.4-1.216c-5.366,0-8.349,2.321-8.349,5.918v.11c0,3.594,3.316,5.7,7.186,5.7,5.254,0,9.567-3.208,9.567-7.744" transform="translate(-295.928 -15.526)" fill="#7c7068"/><path d="M8.884,21.543a.4.4,0,0,1-.632-.2c-.178-.341-.346-.688-.5-1.042a4.7,4.7,0,0,1,1.984-5.944c.08-.045.16-.089.241-.132A50.366,50.366,0,0,0,16.361,10.3,50.962,50.962,0,0,0,20.853,6.65a.449.449,0,0,1,.2-.109.464.464,0,0,1,.111-.014.442.442,0,0,1,.254.075,5.39,5.39,0,0,1,1.933,2.106,3.37,3.37,0,0,1,.191.428,3.026,3.026,0,0,1-.357,3.021,12.128,12.128,0,0,1-2.336,2.623,29.608,29.608,0,0,1-7.321,4.547q-2.363,1.034-4.649,2.216h0" transform="translate(-5.212 -4.616)" fill="#b3cfd6"/><path d="M21.5,29.308a10.111,10.111,0,0,1,5.328,10.1,7.051,7.051,0,0,1-3.175,5.119A49.687,49.687,0,0,1,16.41,48.4,57.653,57.653,0,0,0,3.185,56.365a.6.6,0,0,1-.9-.016,6.582,6.582,0,0,1-.224-9.769,15.757,15.757,0,0,1,3.358-2.435A72.146,72.146,0,0,1,13.2,40.5a35.442,35.442,0,0,0,5.492-2.752,6.992,6.992,0,0,0,3.177-3.962,4.23,4.23,0,0,0-.721-4.051c-.228-.281.032-.6.352-.428" transform="translate(0 -20.693)" fill="#b3cfd6"/><path d="M48.315,98.616a4.97,4.97,0,0,1,2.618,4.962,3.117,3.117,0,0,1-1.561,2.514A24.364,24.364,0,0,1,45.816,108a28.318,28.318,0,0,0-6.5,3.916.3.3,0,0,1-.444-.009,3.237,3.237,0,0,1-.109-4.8,7.748,7.748,0,0,1,1.651-1.2,35.517,35.517,0,0,1,3.822-1.789,17.467,17.467,0,0,0,2.7-1.353,3.443,3.443,0,0,0,1.561-1.947,1.836,1.836,0,0,0-.355-1.991c-.112-.137.016-.294.173-.211" transform="translate(-26.697 -69.722)" fill="#b3cfd6"/><path d="M320.822,150.629l-.278-.766a5.183,5.183,0,0,1,2.281-.519c1.713,0,2.671.874,2.671,2.523V155.7h-.9v-.947a2.74,2.74,0,0,1-2.268,1.082,2.108,2.108,0,0,1-2.343-1.967c0-1.336,1.09-2.041,2.681-2.041a6.686,6.686,0,0,1,1.929.268v-.22c0-1.13-.691-1.711-1.867-1.711a4.367,4.367,0,0,0-1.908.462m.109,3.205c0,.8.729,1.263,1.579,1.263a1.9,1.9,0,0,0,2.1-1.7v-.608a6.5,6.5,0,0,0-1.844-.266c-1.179,0-1.836.509-1.836,1.31" transform="translate(-226.287 -105.613)" fill="#7c7068"/><path d="M344.02,155.638h-.936v-6.275h.936V151a2.689,2.689,0,0,1,2.563-1.747v1.008h-.076c-1.371,0-2.488.983-2.488,2.878Z" transform="translate(-242.621 -105.547)" fill="#7c7068"/><path d="M357.447,141.422h1.067v1.03h-1.067Zm.059,2.4h.936V150.1h-.936Z" transform="translate(-252.779 -100.01)" fill="#7c7068"/><path d="M364.959,150.629l-.279-.766a5.2,5.2,0,0,1,2.282-.519c1.714,0,2.671.874,2.671,2.523V155.7h-.9v-.947a2.744,2.744,0,0,1-2.269,1.082,2.108,2.108,0,0,1-2.343-1.967c0-1.336,1.091-2.041,2.681-2.041a6.7,6.7,0,0,1,1.931.268v-.22c0-1.13-.692-1.711-1.87-1.711a4.371,4.371,0,0,0-1.906.462m.109,3.205c0,.8.729,1.263,1.579,1.263a1.9,1.9,0,0,0,2.1-1.7v-.608a6.508,6.508,0,0,0-1.844-.266c-1.179,0-1.836.509-1.836,1.31" transform="translate(-257.5 -105.613)" fill="#7c7068"/><path d="M398.071,155.582h-.936v-6.275h.936V150.4a2.378,2.378,0,0,1,2.149-1.227,2.292,2.292,0,0,1,2.4,2.514v3.9h-.933v-3.666a1.671,1.671,0,0,0-1.735-1.893,1.849,1.849,0,0,0-1.883,1.967Z" transform="translate(-280.845 -105.491)" fill="#7c7068"/><path d="M424.382,149.633h.922v6.275h-.922v-1.091a2.39,2.39,0,0,1-2.148,1.226,2.294,2.294,0,0,1-2.4-2.514v-3.9h.934V153.3a1.673,1.673,0,0,0,1.736,1.894,1.853,1.853,0,0,0,1.882-1.966Z" transform="translate(-296.895 -105.817)" fill="#7c7068"/><path d="M445.111,155.73a3.279,3.279,0,1,1,3.29-3.291,3.261,3.261,0,0,1-3.29,3.291m0-5.732a2.306,2.306,0,0,0-2.293,2.441,2.358,2.358,0,0,0,2.32,2.452,2.313,2.313,0,0,0,2.3-2.43A2.372,2.372,0,0,0,445.111,150" transform="translate(-312.472 -105.491)" fill="#7c7068"/><path d="M469.363,149.633h1.008l-2.731,6.324h-.827l-2.72-6.324h1.033l2.113,5.207Z" transform="translate(-328.196 -105.817)" fill="#7c7068"/><path d="M486.21,150.629l-.277-.766a5.2,5.2,0,0,1,2.281-.519c1.711,0,2.671.874,2.671,2.523V155.7h-.9v-.947a2.75,2.75,0,0,1-2.271,1.082,2.109,2.109,0,0,1-2.345-1.967c0-1.336,1.095-2.041,2.685-2.041a6.722,6.722,0,0,1,1.931.268v-.22c0-1.13-.692-1.711-1.871-1.711a4.372,4.372,0,0,0-1.907.462m.111,3.205c0,.8.728,1.263,1.577,1.263a1.9,1.9,0,0,0,2.1-1.7v-.608a6.485,6.485,0,0,0-1.845-.266c-1.177,0-1.832.509-1.832,1.31" transform="translate(-343.245 -105.613)" fill="#7c7068"/></g></svg>