<svg id="logo_mastercard" xmlns="http://www.w3.org/2000/svg" width="44.162" height="34.271" viewBox="0 0 44.162 34.271">
  <rect id="Rectangle_3586" data-name="Rectangle 3586" width="11.94" height="21.457" transform="translate(16.11 2.918)" fill="#6c6bbd"/>
  <path id="Path_7142" data-name="Path 7142" d="M88.3,145.433A13.62,13.62,0,0,1,93.509,134.7a13.648,13.648,0,1,0,0,21.459A13.621,13.621,0,0,1,88.3,145.433" transform="translate(-71.428 -131.786)" fill="#eb001b"/>
  <path id="Path_7143" data-name="Path 7143" d="M298.567,145.433a13.647,13.647,0,0,1-22.081,10.731,13.649,13.649,0,0,0,0-21.459,13.647,13.647,0,0,1,22.081,10.729" transform="translate(-254.405 -131.786)" fill="#0099df"/>
  <path id="Path_7145" data-name="Path 7145" d="M18.817,173.731v-2.3a1.349,1.349,0,0,0-1.457-1.457,1.512,1.512,0,0,0-1.3.652,1.34,1.34,0,0,0-1.226-.652,1.238,1.238,0,0,0-1.073.537v-.46h-.8v3.68h.8V171.7c0-.651.345-.958.882-.958s.8.345.8.958v2.032h.8V171.7a.848.848,0,0,1,.882-.958c.537,0,.8.345.8.958v2.032Zm11.921-3.68h-1.3V168.94h-.8v1.112H27.9v.728h.728v1.687c0,.843.345,1.342,1.265,1.342a2.145,2.145,0,0,0,1-.268l-.23-.69a1.261,1.261,0,0,1-.69.192c-.383,0-.537-.23-.537-.613V170.78h1.3v-.728Zm6.823-.077a1.08,1.08,0,0,0-.958.537v-.46h-.8v3.68h.8v-2.07c0-.613.268-.958.767-.958a2.239,2.239,0,0,1,.5.077l.23-.767a2.536,2.536,0,0,0-.537-.038Zm-10.311.383a2.631,2.631,0,0,0-1.5-.383c-.92,0-1.533.46-1.533,1.188,0,.613.46.958,1.265,1.073l.383.038c.422.077.652.192.652.383,0,.268-.307.46-.843.46a2.117,2.117,0,0,1-1.227-.383l-.383.613a2.711,2.711,0,0,0,1.572.46c1.073,0,1.687-.5,1.687-1.188,0-.652-.5-1-1.265-1.112l-.383-.038c-.345-.038-.613-.115-.613-.345,0-.268.268-.422.69-.422a2.762,2.762,0,0,1,1.15.307l.345-.652Zm21.389-.383a1.081,1.081,0,0,0-.958.537v-.46h-.8v3.68h.8v-2.07c0-.613.268-.958.767-.958a2.239,2.239,0,0,1,.5.077l.23-.767a2.536,2.536,0,0,0-.537-.038Zm-10.273,1.917a1.841,1.841,0,0,0,1.955,1.917,1.907,1.907,0,0,0,1.3-.421l-.383-.652a1.549,1.549,0,0,1-.958.345,1.088,1.088,0,0,1-1.112-1.188,1.131,1.131,0,0,1,1.112-1.188,1.548,1.548,0,0,1,.958.345l.383-.652a1.906,1.906,0,0,0-1.3-.422,1.841,1.841,0,0,0-1.955,1.917Zm7.436,0v-1.84H45v.46a1.385,1.385,0,0,0-1.15-.537,1.918,1.918,0,0,0,0,3.833,1.29,1.29,0,0,0,1.15-.537v.46h.8Zm-2.952,0a1.114,1.114,0,1,1,2.223,0,1.114,1.114,0,1,1-2.223,0Zm-9.621-1.917a1.918,1.918,0,0,0,.038,3.833,2.345,2.345,0,0,0,1.5-.5l-.383-.575a1.832,1.832,0,0,1-1.073.383,1.035,1.035,0,0,1-1.112-.882h2.722v-.307a1.693,1.693,0,0,0-1.687-1.955Zm0,.69a.9.9,0,0,1,.92.882H32.233a.971.971,0,0,1,1-.882Zm19.97,1.227v-3.3h-.8v1.916a1.385,1.385,0,0,0-1.15-.537,1.918,1.918,0,0,0,0,3.833,1.29,1.29,0,0,0,1.15-.537v.46h.8Zm-2.951,0a1.114,1.114,0,1,1,2.223,0,1.114,1.114,0,1,1-2.223,0Zm-26.909,0v-1.84h-.8v.46a1.385,1.385,0,0,0-1.15-.537,1.918,1.918,0,0,0,0,3.833,1.29,1.29,0,0,0,1.15-.537v.46h.8Zm-2.99,0a1.114,1.114,0,1,1,2.223,0,1.114,1.114,0,1,1-2.223,0Z" transform="translate(-10.725 -139.537)" fill="#231f20"/>
</svg>
