<svg id="logo_visa-electron" xmlns="http://www.w3.org/2000/svg" width="62.311" height="27.737" viewBox="0 0 62.311 27.737">
  <path id="Path_7141" data-name="Path 7141" d="M23.658.355,15.5,19.817H10.178L6.163,4.285a2.134,2.134,0,0,0-1.2-1.709A21.068,21.068,0,0,0,0,.92L.119.355H8.687a2.348,2.348,0,0,1,2.322,1.983L13.13,13.6,18.367.355Zm7.2,0L26.69,19.817H21.654L25.818.355ZM44.511,13.463c.021-5.136-7.1-5.42-7.054-7.715.017-.7.682-1.44,2.136-1.63a9.507,9.507,0,0,1,4.966.871L45.441.86A13.579,13.579,0,0,0,40.731,0c-4.978,0-8.479,2.644-8.507,6.433-.033,2.8,2.5,4.364,4.406,5.3,1.963.953,2.621,1.566,2.611,2.418-.014,1.306-1.567,1.884-3.011,1.905a10.521,10.521,0,0,1-5.171-1.23l-.914,4.266a15.283,15.283,0,0,0,5.6,1.033c5.292,0,8.752-2.613,8.768-6.66Zm13.144,6.354h4.655L58.243.355h-4.3A2.291,2.291,0,0,0,51.8,1.782L44.249,19.817h5.287l1.049-2.907h6.46Zm-5.621-6.9,2.651-7.309,1.523,7.309ZM37.3,25.174H35.251v1.9h2.288v.572H34.562V22.368h2.86v.572H35.251V24.61H37.3Zm1.3-3.088h.689v5.564H38.6Zm2.429,3.793a1.212,1.212,0,0,0,1.3,1.317,2.473,2.473,0,0,0,1.051-.2l.125.494a3.1,3.1,0,0,1-1.27.243,1.767,1.767,0,0,1-1.865-1.92,1.834,1.834,0,0,1,1.779-2.038,1.6,1.6,0,0,1,1.568,1.779,1.662,1.662,0,0,1-.024.321Zm2.022-.494a.979.979,0,0,0-.956-1.113,1.13,1.13,0,0,0-1.058,1.113Zm4.419,2.132a2.661,2.661,0,0,1-1.089.22A1.8,1.8,0,0,1,44.488,25.8a1.933,1.933,0,0,1,2.037-2.022,2.167,2.167,0,0,1,.956.2l-.156.525a1.694,1.694,0,0,0-.8-.181,1.316,1.316,0,0,0-1.34,1.435A1.3,1.3,0,0,0,46.5,27.181a1.971,1.971,0,0,0,.846-.18ZM49.4,22.948v.909h.987v.525H49.4v2.046c0,.471.133.737.517.737a1.273,1.273,0,0,0,.4-.047l.031.526a1.883,1.883,0,0,1-.611.094.984.984,0,0,1-.745-.29,1.482,1.482,0,0,1-.267-1v-2.07h-.588v-.525h.588v-.705Zm1.95,2.093c0-.447-.008-.831-.031-1.184h.6l.031.752h.023a1.148,1.148,0,0,1,1.058-.831,1.46,1.46,0,0,1,.189.016v.651a1.051,1.051,0,0,0-.236-.016.96.96,0,0,0-.924.878,2.072,2.072,0,0,0-.024.322v2.022h-.69Zm6.112.682a1.858,1.858,0,0,1-1.889,2.014,1.807,1.807,0,0,1-1.818-1.951,1.854,1.854,0,0,1,1.881-2.006A1.794,1.794,0,0,1,57.463,25.723Zm-3,.039c0,.831.47,1.458,1.144,1.458.659,0,1.152-.619,1.152-1.474,0-.643-.321-1.45-1.136-1.45S54.461,25.049,54.461,25.762Zm4.059-.878c0-.4-.008-.713-.031-1.026H59.1l.039.627h.016a1.4,1.4,0,0,1,1.254-.705c.525,0,1.34.314,1.34,1.614v2.258h-.69V25.464c0-.611-.227-1.121-.878-1.121a1,1,0,0,0-.925.705.978.978,0,0,0-.047.322v2.281h-.69Z" fill="#00579f"/>
</svg>
