<svg id="logo_visa" xmlns="http://www.w3.org/2000/svg" width="65.189" height="21.093" viewBox="0 0 65.189 21.093">
  <g id="Group_616" data-name="Group 616">
    <path id="_Compound_Path_" data-name=" Compound Path " d="M41.184,0C35.96,0,32.3,2.777,32.262,6.746c0,2.941,2.619,4.582,4.618,5.56s2.749,1.642,2.74,2.535c0,1.37-1.649,1.99-3.161,1.99a10.569,10.569,0,0,1-5-1.07l-.715-.328-.713,4.576a16,16,0,0,0,5.881,1.085c5.539,0,9.144-2.742,9.186-6.981,0-2.335-1.384-4.1-4.439-5.553-1.842-.95-2.976-1.578-2.962-2.535.05-.841,1.006-1.741,3.077-1.741a9.217,9.217,0,0,1,3.947.786l.471.236L45.91.871A13.018,13.018,0,0,0,41.184,0ZM24.767.357,21.491,20.8h5.275L30.07.357h-5.3Zm-7.7.022h5.588l-8.308,20.4H8.757L4.032,2.855c3.24,1.478,6.031,5.119,7.316,8.566l.55,2.855Zm38.308,0H59.45l4.283,20.429h-4.9s-.478-2.348-.643-3.062H51.427c-.207.549-1.114,3.075-1.114,3.075H44.767l7.851-18.73A2.613,2.613,0,0,1,55.374.378Zm.372,5.511h0c-.271.764-.715,2.005-.715,1.948s-1.662,4.54-2.1,5.711h4.382l-1.228-5.9Z" transform="translate(1.457 0)" fill="#00579f"/>
    <g id="_Group_3" data-name=" Group 3" transform="translate(0 0.364)">
      <path id="_Compound_Path_2" data-name=" Compound Path 2" d="M8.566.267H.05L0,.617c6.616,1.7,10.985,5.854,12.8,10.771l-1.849-9.4A2.223,2.223,0,0,0,8.566.267Z" transform="translate(0 -0.267)" fill="#faa61a"/>
    </g>
  </g>
</svg>
