<svg id="logo_piraeus-bank" xmlns="http://www.w3.org/2000/svg" width="48.02" height="29.811" viewBox="0 0 48.02 29.811">
  <path id="Path_7394" data-name="Path 7394" d="M271,167.945h20.334V147.81H271Z" transform="translate(-257.16 -138.134)" fill="#003b95" fill-rule="evenodd"/>
  <path id="Path_7395" data-name="Path 7395" d="M286.34,164.089l-1.088,1.4-9.111-7.221,1.069-1.4Zm-4.972.062-10.347-8.321-.031.037v2.212l9.291,7.457Zm.926-7.352-1.088,1.4,10.117,8.216v-2.287Z" transform="translate(-257.156 -141.17)" fill="#f9b413" fill-rule="evenodd"/>
  <path id="Path_7396" data-name="Path 7396" d="M250.594,134.962H249.47V133.1h1.125a.932.932,0,1,1,0,1.864m0-2.6H248.73v5.177h.771V135.72h1.125a1.684,1.684,0,1,0,.2-3.362,1.609,1.609,0,0,0-.2,0m5.233.764h1.119a.932.932,0,0,1,0,1.864h-1.131v-1.864Zm2.828.92a1.691,1.691,0,0,0-1.7-1.684h-1.9v5.177h.771V135.72h.926l1.143,1.815h.907l-1.243-1.933a1.684,1.684,0,0,0,1.069-1.56Zm-5.674,3.493h.771v-5.084h-.771Zm38.052-1.361-2.1-3.729h-.914v5.084h.771V133.8l2.1,3.729h.858v-5.084h-.746Zm-26.393-3.729v5.084h2.871v-.764h-2.15v-1.5h1.541V134.5h-1.541v-1.293h2.15v-.764H264.67Zm-3.965,3.058.87-2.231.889,2.231Zm1.243-3.256h-.82l-2.144,5.289h.907l.491-1.243h2.362l.51,1.243h.907l-2.212-5.295Zm22.174,3.256.87-2.231.889,2.231Zm1.243-3.256h-.8l-2.113,5.289h.907l.491-1.243h2.33l.51,1.243h.907l-2.212-5.295Zm-14.076.205v3.393a1.125,1.125,0,0,1-2.25,0v-3.393h-.771v3.393a1.889,1.889,0,0,0,3.778,0v-3.393Zm3.312,2.02a1.993,1.993,0,0,1-.82-.584.454.454,0,0,1-.031-.491.552.552,0,0,1,.491-.3,2.187,2.187,0,0,1,1.137.441l.485-.59a2.944,2.944,0,0,0-1.622-.621,1.312,1.312,0,0,0-1.175.727,1.18,1.18,0,0,0,.1,1.286,2.706,2.706,0,0,0,1.1.814,2.876,2.876,0,0,1,.677.416.77.77,0,0,1,.28.621.553.553,0,0,1-.261.441,1.442,1.442,0,0,1-1.734-.273l-.534.547a2.418,2.418,0,0,0,1.647.677,1.777,1.777,0,0,0,1.081-.342,1.329,1.329,0,0,0,.572-1.007,1.523,1.523,0,0,0-.528-1.193,3.243,3.243,0,0,0-.864-.541m6.1,2.231h-1.355v-1.572h1.4a.789.789,0,1,1,.14,1.572.754.754,0,0,1-.14,0Zm-.242-3.455a.559.559,0,0,1,0,1.119h-1.112v-1.119Zm1.063,1.349a1.294,1.294,0,0,0,.273-.789,1.33,1.33,0,0,0-1.336-1.324h-1.927v4.972H280.7a1.541,1.541,0,0,0,.82-2.865Zm14.294,2.939h.932l-2.3-2.958,1.653-2.125h-.926l-1.535,2.007v-2.032h-.771v5.084h.771V135.67l.392-.5Z" transform="translate(-248.73 -132.24)" fill="#003b95" fill-rule="evenodd"/>
</svg>
