<svg xmlns="http://www.w3.org/2000/svg" width="105" height="74.359" viewBox="0 0 105 74.359"><g opacity="0.499" style="mix-blend-mode:luminosity;isolation:isolate"><path d="M10.19,43.508C9.812,44.688,21,5.36,57.827,1.3c-13.5,6.515-31.868,20.773-35.409,42.68C17.272,42.186,10.19,43.508,10.19,43.508Z" transform="translate(-7.263 -1.158)" fill="#a5242c" fill-rule="evenodd"/><path d="M96.232,1C82.73,11.245,79,44.058,79,44.058c5.193-1.416,28.091-1.416,33.285,0C112.285,44.058,109.735,11.245,96.232,1Z" transform="translate(-43.591 -1)" fill="#a5242c" fill-rule="evenodd"/><path d="M167.765,43.98S156.529,5.266,120.6,1.3c13.5,6.515,30.924,20.773,34.465,42.68C160.164,42.186,167.765,43.98,167.765,43.98Z" transform="translate(-65.551 -1.158)" fill="#a5242c" fill-rule="evenodd"/><path d="M22.318,113.886a8.734,8.734,0,1,1,8.734,8.734A8.745,8.745,0,0,1,22.318,113.886Zm2.6,0a6.138,6.138,0,1,1,6.138,6.138A6.125,6.125,0,0,1,24.915,113.886Zm18.979,0a6.138,6.138,0,1,1,6.138,6.138A6.125,6.125,0,0,1,43.894,113.886Zm0,6.279v7.507H41.3V113.839a8.758,8.758,0,1,1,8.781,8.781,8.587,8.587,0,0,1-6.185-2.455Zm53.4-9.537-7.223,7.223-1.888-1.888L95.4,108.74A6.083,6.083,0,1,0,95.5,118.89l1.936,1.888A8.786,8.786,0,1,1,92.1,105.01a8.611,8.611,0,0,1,7.082,3.635Zm4.485,3.116v8.309H99.133v-8.168a8.765,8.765,0,0,1,8.781-8.781V107.8A6.026,6.026,0,0,0,101.777,113.744ZM79.256,100.1H81.9v21.954H79.256Zm27.053,18.6c.378,0,.755.047.755.425,0,.425-.614.378-1.039.378h-.519v-.8Zm.33,1.275a.8.8,0,0,0,.85-.9c0-.661-.519-.85-1.133-.85h-1.369v3.258h.472v-1.511h.614l.85,1.511h.519l-.8-1.511Zm-.519-2.549a2.408,2.408,0,1,1-2.408,2.408A2.388,2.388,0,0,1,106.12,117.427Zm0,5.288a2.88,2.88,0,1,0-2.88-2.88A2.861,2.861,0,0,0,106.12,122.715Zm-43.2-8.829a6.138,6.138,0,1,1,6.138,6.138A6.125,6.125,0,0,1,62.921,113.886Zm0,6.279v7.507h-2.6V113.839a8.758,8.758,0,1,1,8.781,8.781A8.51,8.51,0,0,1,62.921,120.165Zm-44.474-6.09a6.125,6.125,0,0,1-6.138,6.138c-3.4,0-5.665-3.21-5.665-6.61a5.353,5.353,0,0,1,5.665-5.665A6.125,6.125,0,0,1,18.447,114.075Zm0-6.232v-7.507h2.6v13.833a8.775,8.775,0,0,1-8.781,8.687C7.446,122.856,4,118.466,4,113.65a7.959,7.959,0,0,1,8.262-8.262,8.4,8.4,0,0,1,6.185,2.455Z" transform="translate(-4 -53.313)" fill-rule="evenodd"/></g></svg>