<svg xmlns="http://www.w3.org/2000/svg" width="137.274" height="43.569" viewBox="0 0 137.274 43.569"><g opacity="0.505" style="mix-blend-mode:luminosity;isolation:isolate"><rect width="45.712" height="43.569" fill="#dc281e"/><rect width="44.111" height="43.569" transform="translate(46.925)" fill="#dc281e"/><rect width="45.049" height="43.569" transform="translate(92.225)" fill="#dc281e"/><path d="M34.1,282.4H51.488v5.665H47.53v-1.776H43.366v3.035h3.5V293.3h-3.5v3.687h2.128v3.889H34.1v-3.8h1.762V286.627H34.1Z" transform="translate(-30.943 -269.563)" fill="#fff"/><path d="M138.239,297.036l-2.745-5.351s3.157-1.754,2.974-4.047c-.389-4.744-6.909-5.238-6.909-5.238H117.9v4.182h2.082v10.454H118.2v3.844h11.1v-3.867h-1.807v-3.8h2.036l3.317,7.666h7.367v-3.844Zm-10.73-6.61v-4.137s3.5-.135,3.5,2.091c0,2.2-3.5,2.046-3.5,2.046" transform="translate(-95.57 -269.563)" fill="#fff"/><path d="M248.777,297.036l-3.249-10.769h2.128V282.4H233.471v3.934h1.945l-3.592,10.656H231v3.867h7.5v-3.822h-1.853l.389-2.046h4.873l.412,2.046h-1.785v3.822h10.273v-3.822ZM237.8,291.82l1.945-5.193,1.9,5.193Z" transform="translate(-182.794 -269.563)" fill="#fff"/><path d="M323.846,282.4h7.413l7.367,9.06v-5.126h-1.693V282.4h7.459v3.844h-1.35V300.88h-6.154l-6.909-9.712v5.823h1.67v3.889H323.8v-3.844h1.487l.023-10.791-1.464.022Z" transform="translate(-254.362 -269.563)" fill="#fff"/><path d="M427.746,282.4h11v3.53h-1.785v4.541l4.53-4.519-1.327-.022V282.4h8.854v3.485H447.7l-5.01,5.283,5.72,5.53h2.036v4.182H440.078v-3.889h1.762l-4.69-4.879v4.879H438.7v3.889h-11v-3.889h2.128V286.244l-2.082.022Z" transform="translate(-334.491 -269.563)" fill="#fff"/><path d="M531.6,282.4h17.434v5.62h-4.3v-2.136h-3.867v3.844h3.226v3.485H540.82v3.53h3.958v-2.181h4.256v6.317H531.6V296.7h2.174V285.885H531.6Z" transform="translate(-414.62 -269.563)" fill="#fff"/></g></svg>