<svg xmlns="http://www.w3.org/2000/svg" width="273.475" height="51.65" viewBox="0 0 273.475 51.65"><g transform="translate(0)"><path d="M723.381,251.957v-12.1q0-5.632,2.584-8.473a8.947,8.947,0,0,1,6.96-2.84,3.955,3.955,0,0,1,.7.047v2.84a3.953,3.953,0,0,0-.7-.047,5.892,5.892,0,0,0-4.795,2.142q-1.771,2.142-1.769,6.332v12.1Z" transform="translate(-460.148 -217.837)" fill="#14723e"/><path d="M362.882,233.857a11.615,11.615,0,0,1-3.492,8.5,12.008,12.008,0,1,1-8.473-20.509,10.238,10.238,0,0,1,5.191,1.351,10.776,10.776,0,0,1,3.794,3.631v-13.92h2.98Zm-11.965-9.172a8.636,8.636,0,0,0-6.4,2.678,9.391,9.391,0,0,0-.023,13.012,9.132,9.132,0,0,0,12.873,0,9.482,9.482,0,0,0-.023-13.036A8.653,8.653,0,0,0,350.917,224.686Z" transform="translate(-338.905 -212.907)" fill="#14723e"/><path d="M383.167,218.319a1.97,1.97,0,0,1-2.7,0,1.817,1.817,0,0,1-.559-1.373,1.765,1.765,0,0,1,.559-1.327,1.972,1.972,0,0,1,2.7,0,1.765,1.765,0,0,1,.559,1.327A1.817,1.817,0,0,1,383.167,218.319Zm-2.84,27.864V222.9h2.98v23.278Z" transform="translate(-351.835 -213.594)" fill="#14723e"/><path d="M401.78,249.986a12.033,12.033,0,1,1,11.965-12.012v11.639h-2.98v-4.981a9.234,9.234,0,0,1-3.631,3.864A10.173,10.173,0,0,1,401.78,249.986Zm-6.378-5.517a8.709,8.709,0,0,0,6.425,2.677,8.6,8.6,0,0,0,6.378-2.654,9.481,9.481,0,0,0,.024-13.036,8.578,8.578,0,0,0-6.4-2.654,8.727,8.727,0,0,0-6.448,2.654,9.33,9.33,0,0,0,.023,13.013Z" transform="translate(-354.945 -217.024)" fill="#14723e"/><path d="M438.617,225.959h-5.866v9.358q0,7.45,5.866,8.334v2.886a9.369,9.369,0,0,1-6.425-3.189q-2.374-2.769-2.421-7.937V215.763h2.98v7.356h5.866Z" transform="translate(-367.559 -213.808)" fill="#14723e"/><path d="M456.672,221.846a9.93,9.93,0,0,1,7.449,2.864q2.793,2.862,2.793,8.543V245.5h-2.98V233.253q0-4.236-1.955-6.4a6.8,6.8,0,0,0-5.307-2.165,6.869,6.869,0,0,0-5.307,2.119q-1.955,2.119-1.955,6.215V245.5h-2.98v-32.59h2.98v12.757A7.9,7.9,0,0,1,456.672,221.846Z" transform="translate(-372.813 -212.907)" fill="#14723e"/><g transform="translate(135.333 35.988)"><path d="M540.783,276.642h-4.212v-1.573h4.212Z" transform="translate(-536.571 -268.498)" fill="#afca05"/><path d="M549.948,277.04a.883.883,0,0,0-.429-.794,4.554,4.554,0,0,0-1.424-.481,7.329,7.329,0,0,1-1.661-.53,2.216,2.216,0,0,1-1.46-2.046,2.31,2.31,0,0,1,.947-1.877,3.741,3.741,0,0,1,2.407-.754,3.9,3.9,0,0,1,2.516.77,2.445,2.445,0,0,1,.958,2h-1.95a1.2,1.2,0,0,0-.417-.935,1.6,1.6,0,0,0-1.107-.373,1.726,1.726,0,0,0-1.047.3.936.936,0,0,0-.4.794.79.79,0,0,0,.377.7,5.192,5.192,0,0,0,1.525.5,7.215,7.215,0,0,1,1.8.6,2.548,2.548,0,0,1,.971.838,2.143,2.143,0,0,1,.317,1.188,2.262,2.262,0,0,1-.971,1.9,4.142,4.142,0,0,1-2.544.726,4.493,4.493,0,0,1-1.9-.385,3.132,3.132,0,0,1-1.3-1.059,2.507,2.507,0,0,1-.466-1.452h1.894a1.373,1.373,0,0,0,.522,1.063,2.027,2.027,0,0,0,1.276.373,1.973,1.973,0,0,0,1.171-.293A.906.906,0,0,0,549.948,277.04Z" transform="translate(-539.129 -267.075)" fill="#afca05"/><path d="M559.752,270.06a3.053,3.053,0,0,1,2.415-1.107q2.776,0,2.816,3.169v5.672h-1.95v-5.6a1.713,1.713,0,0,0-.389-1.271,1.592,1.592,0,0,0-1.143-.373,1.878,1.878,0,0,0-1.749,1.043v6.2H557.8V265.471h1.949Z" transform="translate(-543.266 -265.471)" fill="#afca05"/><path d="M570.827,274.978a5.119,5.119,0,0,1,.505-2.3,3.693,3.693,0,0,1,1.42-1.573,4.005,4.005,0,0,1,2.1-.55,3.794,3.794,0,0,1,2.852,1.131,4.452,4.452,0,0,1,1.183,3l.008.457a5.163,5.163,0,0,1-.494,2.295,3.648,3.648,0,0,1-1.412,1.564,4.033,4.033,0,0,1-2.122.554,3.765,3.765,0,0,1-2.941-1.224,4.686,4.686,0,0,1-1.1-3.261Zm1.95.168a3.5,3.5,0,0,0,.553,2.1,1.8,1.8,0,0,0,1.54.758,1.78,1.78,0,0,0,1.536-.77,3.864,3.864,0,0,0,.55-2.255,3.452,3.452,0,0,0-.566-2.086,1.906,1.906,0,0,0-3.053-.012A3.788,3.788,0,0,0,572.777,275.146Z" transform="translate(-547.373 -267.075)" fill="#afca05"/><path d="M592.816,275.146a5.169,5.169,0,0,1-.915,3.214,3.177,3.177,0,0,1-4.742.26v4.116H585.21V270.717h1.8l.08.883a2.864,2.864,0,0,1,2.335-1.043,2.959,2.959,0,0,1,2.491,1.184,5.3,5.3,0,0,1,.9,3.285Zm-1.942-.168a3.623,3.623,0,0,0-.518-2.062,1.682,1.682,0,0,0-1.48-.762,1.8,1.8,0,0,0-1.717.987v3.851A1.812,1.812,0,0,0,588.893,278a1.68,1.68,0,0,0,1.456-.75A3.988,3.988,0,0,0,590.874,274.978Z" transform="translate(-551.909 -267.075)" fill="#afca05"/></g><path d="M549.714,249.986a9.093,9.093,0,0,1-5.75-1.862,5.94,5.94,0,0,1-2.4-4.935h2.886a3.566,3.566,0,0,0,1.513,3.026,6.219,6.219,0,0,0,3.794,1.117,6,6,0,0,0,3.818-1.071,3.589,3.589,0,0,0,1.35-2.98,3.511,3.511,0,0,0-1.373-2.84,8.542,8.542,0,0,0-3.212-1.489q-1.886-.465-3.771-1a6.722,6.722,0,0,1-3.212-2,5.572,5.572,0,0,1-1.327-3.887,5.323,5.323,0,0,1,2.165-4.423,8.52,8.52,0,0,1,5.377-1.676,8.421,8.421,0,0,1,5.4,1.7,5.6,5.6,0,0,1,2.141,4.632H554.23a3.186,3.186,0,0,0-1.327-2.677,5.376,5.376,0,0,0-3.329-1,5.278,5.278,0,0,0-3.259.978,3.143,3.143,0,0,0-1.3,2.654,2.975,2.975,0,0,0,1.3,2.56,8.648,8.648,0,0,0,3.189,1.351q1.886.418,3.771,1a7,7,0,0,1,3.236,2.118,6.1,6.1,0,0,1,1.4,4.05,5.725,5.725,0,0,1-2.235,4.888A9.447,9.447,0,0,1,549.714,249.986Z" transform="translate(-402.814 -217.024)" fill="#14723e"/><path d="M572.637,218.319a1.97,1.97,0,0,1-2.7,0,1.82,1.82,0,0,1-.559-1.373,1.768,1.768,0,0,1,.559-1.327,1.972,1.972,0,0,1,2.7,0,1.763,1.763,0,0,1,.559,1.327A1.815,1.815,0,0,1,572.637,218.319Zm-2.84,27.864V222.9h2.98v23.278Z" transform="translate(-411.584 -213.594)" fill="#14723e"/><path d="M606.423,225.963a9.112,9.112,0,0,1,7.053,2.864q2.629,2.862,2.63,8.543v12.244h-2.979V237.37q0-4.236-1.792-6.4a6.039,6.039,0,0,0-4.912-2.165,6.1,6.1,0,0,0-4.935,2.165q-1.817,2.165-1.816,6.4v12.244h-2.979V237.37q0-4.236-1.792-6.4a6.039,6.039,0,0,0-4.912-2.165,6.1,6.1,0,0,0-4.935,2.165q-1.817,2.165-1.816,6.4v12.244h-2.98V237.37q0-5.68,2.63-8.543a10.1,10.1,0,0,1,12.175-1.467,7.633,7.633,0,0,1,3.119,4.144,7.586,7.586,0,0,1,3.143-4.144A9.343,9.343,0,0,1,606.423,225.963Z" transform="translate(-415.015 -217.024)" fill="#14723e"/><path d="M640.415,229.478a12.029,12.029,0,1,1-3.514,8.5A11.577,11.577,0,0,1,640.415,229.478Zm14.945,1.979a8.575,8.575,0,0,0-6.4-2.654,8.726,8.726,0,0,0-6.448,2.654,9.33,9.33,0,0,0,.023,13.013,8.709,8.709,0,0,0,6.425,2.677,8.6,8.6,0,0,0,6.378-2.654,9.48,9.48,0,0,0,.023-13.036Z" transform="translate(-432.877 -217.024)" fill="#14723e"/><path d="M512.179,258.051a14.615,14.615,0,0,1-11.845,5.475,13.927,13.927,0,0,1-10.045-3.911,13.675,13.675,0,0,1-4.294-9.662h33.74a9.972,9.972,0,0,0,.077-2.07,19.239,19.239,0,0,0-19.477-19.247,18.507,18.507,0,0,0-13.841,5.828,19.461,19.461,0,0,0-5.636,14.033,19.128,19.128,0,0,0,5.674,13.956,18.748,18.748,0,0,0,13.879,5.751,20.713,20.713,0,0,0,15.229-6.693ZM490.9,236.879a13.781,13.781,0,0,1,9.508-3.566,13.548,13.548,0,0,1,9.393,3.566,14.778,14.778,0,0,1,4.793,8.933h-28.6A15.054,15.054,0,0,1,490.9,236.879Z" transform="translate(-383.669 -217.867)" fill="#afca05"/><path d="M704.177,231.714a12.016,12.016,0,1,0-8.5,20.508,10.706,10.706,0,0,0,5.168-1.28,10.408,10.408,0,0,0,3.818-3.468v2.235a8.1,8.1,0,0,1-2.63,6.122,9.8,9.8,0,0,1-6.308,2.491,13.148,13.148,0,0,1-7.271-1.683l-1.11,2.445a18.5,18.5,0,0,0,8.335,2.059,12.294,12.294,0,0,0,8.5-3.5,11.578,11.578,0,0,0,3.515-8.5v-8.939A11.578,11.578,0,0,0,704.177,231.714Zm-2.072,15.014a8.6,8.6,0,0,1-6.378,2.654,8.711,8.711,0,0,1-6.424-2.677,9.331,9.331,0,0,1-.024-13.013,8.729,8.729,0,0,1,6.448-2.654,8.577,8.577,0,0,1,6.4,2.654,9.482,9.482,0,0,1-.023,13.036Z" transform="translate(-447.625 -217.729)" fill="#14723e"/><circle cx="1.888" cy="1.888" r="1.888" transform="translate(230.158 29.602)" fill="#14723e"/></g></svg>