<svg xmlns="http://www.w3.org/2000/svg" width="195.432" height="42.132" viewBox="0 0 195.432 42.132"><g opacity="0.499" style="mix-blend-mode:luminosity;isolation:isolate"><path d="M56.126,74.316h-8.57V96.272h5.8V89.15h2.965c5.1,0,7.707-2.6,7.707-7.531,0-4.749-2.815-7.3-7.9-7.3m-1.987,10.1h-.931V79.058h.931c2.131,0,4,.024,4,2.735,0,2.622-2.008,2.622-4,2.622" transform="translate(3.173 -64.223)" fill="#1a1818"/><path d="M82.348,74.316H75.642s-3.687,5.5-3.91,5.825c-.223-.324-3.906-5.825-3.906-5.825H60.855L68.8,85.769v10.5h5.821v-10.5l7.989-11.453Z" transform="translate(6.545 -64.223)" fill="#1a1818"/><path d="M91.443,87.317c2.8-.6,4.574-2.984,4.574-6.159,0-4.393-2.72-6.842-7.52-6.842H80.07V96.272h5.814V88.266c.382.607,4.654,8.007,4.654,8.007h7.244s-6.111-8.571-6.339-8.955M86.272,84.06h-.389V78.973h.389c1.751,0,3.714.283,3.714,2.53s-1.963,2.556-3.714,2.556" transform="translate(11.417 -64.223)" fill="#1a1818"/><path d="M110.194,74.315h-6.263L95.666,96.273h6.166s1.4-3.567,1.463-3.734h7.45c.06.167,1.374,3.734,1.374,3.734H118.3Zm-5.259,13.671c.117-.31,1.915-5.86,2.107-6.443.187.583,1.981,6.136,2.076,6.443Z" transform="translate(15.37 -64.223)" fill="#1a1818"/><path d="M138.9,74.316h-5.606l-4.479,11.328c-.238-.647-4.226-11.328-4.226-11.328h-5.665l-3.679,21.956h5.788s1.656-11.364,1.771-12.157c.29.747,4.761,12.157,4.761,12.157h2.385s4.676-11.41,4.974-12.157c.11.807,1.507,12.157,1.507,12.157h5.821l-3.238-21.956Z" transform="translate(20.335 -64.223)" fill="#1a1818"/><path d="M146.026,74.316h-5.679V96.272h5.809V74.316Z" transform="translate(26.698 -64.223)" fill="#1a1818"/><path d="M148.922,81.2c0,4.067,2.656,4.892,6.916,5.9l.223.053c1.6.475,4.232,1.083,4.232,2.831,0,1.722-1.9,2.515-3.675,2.515a10.461,10.461,0,0,1-5.9-2.063l-.124-.085L148,94.4l.123.063a21.362,21.362,0,0,0,9.487,2.259,10.676,10.676,0,0,0,6.584-2,6.5,6.5,0,0,0,2.6-5.672c0-3.017-1.87-4.717-6.3-5.8l-1.762-.44c-1.22-.326-3.307-.879-3.307-2.366,0-1.466,1.953-2.133,3.307-2.133a8.515,8.515,0,0,1,4.346,1.268l.123.075,2.374-3.959-.139-.068a20.938,20.938,0,0,0-7.679-1.585c-5.281,0-8.836,2.832-8.836,7.16" transform="translate(28.638 -64.291)" fill="#1a1818"/><path d="M28.338,68.855V74.6l-3.261-3.128-.99,2.029,4.251,4.092v3.763l-6.779-6.571-1,2.048,7.782,7.506V88l-10.25-9.885-1.053,2.144L28.338,91.1V94.75L14.55,81.537l-.988,2.04L28.338,97.753v3.768l-17.3-16.66-1,2.037L28.347,104.5,46.991,86.625Z" transform="translate(-6.34 -65.552)" fill="#cb0017"/><path d="M29.094,66.2,7.087,87.27l22.007,21.06,22-21.06Zm0,41.212L8.1,87.27,29.093,67.109,50.136,87.27Z" transform="translate(-7.087 -66.198)" fill="#cb0017"/></g></svg>