<svg xmlns="http://www.w3.org/2000/svg" width="120.186" height="29.119" viewBox="0 0 120.186 29.119">
  <g id="logo_paypal" style="isolation: isolate">
    <path id="Path_7709" data-name="Path 7709" d="M32.315,32.33h8.213c4.41,0,6.07,2.232,5.813,5.512-.424,5.415-3.7,8.41-8.039,8.41H36.11c-.6,0-1,.394-1.158,1.463l-.931,6.212c-.061.4-.273.636-.591.668H28.27c-.485,0-.657-.371-.53-1.175l3.146-19.914A1.252,1.252,0,0,1,32.315,32.33Z" transform="translate(-21.827 -25.476)" fill="#009ee3" fill-rule="evenodd"/>
    <path id="Path_7710" data-name="Path 7710" d="M177.317,30.59c2.771,0,5.328,1.5,4.978,5.249-.424,4.452-2.809,6.916-6.572,6.926h-3.288c-.473,0-.7.386-.825,1.177l-.636,4.043c-.1.611-.409.912-.871.912h-3.059c-.488,0-.657-.312-.549-1.009l2.525-16.2c.125-.8.424-1.094.969-1.094h7.329Zm-4.982,8.675h2.491c1.558-.059,2.593-1.138,2.7-3.085a1.882,1.882,0,0,0-2.039-2.056l-2.345.011-.8,5.131Zm18.277,8.391c.28-.254.564-.386.524-.072l-.1.75c-.051.392.1.6.469.6h2.718c.458,0,.681-.184.793-.893l1.675-10.511c.085-.528-.045-.787-.445-.787h-2.989c-.269,0-.4.151-.471.562l-.11.647c-.057.337-.212.4-.356.057-.507-1.2-1.8-1.738-3.6-1.7-4.191.087-7.017,3.269-7.321,7.348A5.052,5.052,0,0,0,186.4,49.3a5.375,5.375,0,0,0,4.219-1.632h0Zm-2.277-1.618a2.731,2.731,0,0,1-2.8-3.2,3.9,3.9,0,0,1,3.752-3.2,2.732,2.732,0,0,1,2.8,3.2,3.9,3.9,0,0,1-3.752,3.2Zm13.674-9.328h-2.756c-.568,0-.8.424-.619.946l3.422,10.019L198.7,52.443c-.282.4-.064.761.333.761h3.1a.948.948,0,0,0,.92-.452l10.524-15.095c.324-.464.172-.952-.36-.952h-2.932c-.5,0-.7.2-.992.617l-4.388,6.36-1.961-6.375a.839.839,0,0,0-.929-.6Z" transform="translate(-131.172 -24.105)" fill="#113984" fill-rule="evenodd"/>
    <path id="Path_7711" data-name="Path 7711" d="M399.984,30.574c2.771,0,5.328,1.5,4.978,5.249-.424,4.452-2.809,6.916-6.572,6.926H395.1c-.473,0-.7.386-.825,1.177l-.636,4.043c-.1.611-.409.912-.871.912h-3.059c-.488,0-.657-.312-.549-1.009l2.529-16.208c.125-.8.424-1.094.969-1.094h7.323ZM395,39.249h2.491c1.558-.059,2.593-1.138,2.7-3.085a1.882,1.882,0,0,0-2.039-2.056l-2.345.011-.8,5.131Zm18.277,8.391c.28-.254.564-.386.524-.072l-.1.75c-.051.392.1.6.469.6h2.718c.458,0,.681-.184.793-.893l1.675-10.511c.085-.528-.045-.787-.445-.787h-2.985c-.269,0-.4.151-.471.562l-.11.647c-.057.337-.212.4-.356.057-.507-1.2-1.8-1.738-3.6-1.7-4.191.087-7.017,3.269-7.32,7.348a5.052,5.052,0,0,0,5.008,5.633,5.376,5.376,0,0,0,4.219-1.632h0ZM411,46.023a2.732,2.732,0,0,1-2.8-3.2,3.9,3.9,0,0,1,3.753-3.2,2.731,2.731,0,0,1,2.8,3.2,3.9,3.9,0,0,1-3.752,3.2Zm12.536,2.913H420.4a.371.371,0,0,1-.384-.424l2.756-17.461a.541.541,0,0,1,.522-.424h3.138a.371.371,0,0,1,.387.354.386.386,0,0,1,0,.07l-2.756,17.461a.541.541,0,0,1-.522.428Z" transform="translate(-306.635 -24.089)" fill="#009ee3" fill-rule="evenodd"/>
    <path id="Path_7712" data-name="Path 7712" d="M5.352,0h8.222c2.315,0,5.063.074,6.9,1.7A5.573,5.573,0,0,1,22.2,6.36c-.5,6.277-4.259,9.795-9.3,9.795H8.846c-.691,0-1.147.458-1.342,1.7L6.372,25.059c-.074.466-.276.742-.636.776H.663c-.562,0-.761-.424-.615-1.361L3.694,1.37A1.459,1.459,0,0,1,5.352,0Z" transform="translate(-0.002)" fill="#113984" fill-rule="evenodd"/>
    <path id="Path_7713" data-name="Path 7713" d="M35.95,42.587,37.385,33.5a1.256,1.256,0,0,1,1.431-1.179h8.213a8.011,8.011,0,0,1,3.32.6c-.825,5.588-4.439,8.692-9.171,8.692H37.131A1.2,1.2,0,0,0,35.95,42.587Z" transform="translate(-28.329 -25.468)" fill="#172c70" fill-rule="evenodd"/>
  </g>
</svg>
