<svg id="logo_hellenic-technologies" xmlns="http://www.w3.org/2000/svg" width="113.622" height="52.554" viewBox="0 0 113.622 52.554">
  <g id="Group_147" data-name="Group 147" transform="translate(45.268 29.823)">
    <path id="Path_4473" data-name="Path 4473" d="M39.26,32.832a1.718,1.718,0,0,1-1.223-.455,1.686,1.686,0,0,1-.5-1.266V27.743H36.482V26.711h1.057V24.867h1.13v1.844h1.475v1.032H38.67v3a1.1,1.1,0,0,0,.235.818.76.76,0,0,0,.529.215,1.115,1.115,0,0,0,.264-.031,1.39,1.39,0,0,0,.239-.079l.356,1.008A3.032,3.032,0,0,1,39.26,32.832Z" transform="translate(-36.482 -23.835)" fill="#03123a"/>
    <path id="Path_4474" data-name="Path 4474" d="M43.026,32.61a2.879,2.879,0,0,1-2.188-.91,3.213,3.213,0,0,1-.86-2.3,3.269,3.269,0,0,1,.835-2.292,3.005,3.005,0,0,1,4.271-.05,3.466,3.466,0,0,1,.793,2.427l-.012.123H41.134a1.957,1.957,0,0,0,.589,1.426,1.906,1.906,0,0,0,3.049-.541l1.008.493a3.006,3.006,0,0,1-1.124,1.191A3.115,3.115,0,0,1,43.026,32.61ZM41.22,28.677h3.453a1.494,1.494,0,0,0-.51-1.037,1.778,1.778,0,0,0-1.235-.412,1.636,1.636,0,0,0-1.1.393A1.879,1.879,0,0,0,41.22,28.677Z" transform="translate(-35.64 -23.515)" fill="#03123a"/>
    <path id="Path_4475" data-name="Path 4475" d="M48.434,32.61a2.974,2.974,0,0,1-2.225-.91,3.239,3.239,0,0,1-.872-2.3,3.183,3.183,0,0,1,.872-2.3,2.974,2.974,0,0,1,2.225-.91,2.756,2.756,0,0,1,2.643,1.732l-1.032.431a1.7,1.7,0,0,0-1.684-1.13,1.748,1.748,0,0,0-1.34.627,2.443,2.443,0,0,0,0,3.1,1.752,1.752,0,0,0,1.34.627,1.77,1.77,0,0,0,1.745-1.13l1.008.429a2.7,2.7,0,0,1-1.037,1.273A2.945,2.945,0,0,1,48.434,32.61Z" transform="translate(-34.35 -23.515)" fill="#03123a"/>
    <path id="Path_4476" data-name="Path 4476" d="M50.785,24.115h1.13v2.777l-.05.836h.05a2.02,2.02,0,0,1,.793-.738A2.276,2.276,0,0,1,53.82,26.7a2.226,2.226,0,0,1,1.7.633,2.528,2.528,0,0,1,.6,1.8v3.786h-1.13V29.35q0-1.621-1.438-1.622a1.452,1.452,0,0,0-1.161.571,2.031,2.031,0,0,0-.473,1.334v3.282h-1.13Z" transform="translate(-33.038 -24.016)" fill="#03123a"/>
    <path id="Path_4477" data-name="Path 4477" d="M56.153,26.391h1.082v.836h.048a2.02,2.02,0,0,1,.793-.738,2.277,2.277,0,0,1,1.113-.294,2.223,2.223,0,0,1,1.7.633,2.523,2.523,0,0,1,.6,1.8v3.786h-1.13V28.7a1.329,1.329,0,0,0-1.488-1.474,1.415,1.415,0,0,0-1.13.546,1.979,1.979,0,0,0-.455,1.309v3.332h-1.13Z" transform="translate(-31.745 -23.515)" fill="#03123a"/>
    <path id="Path_4478" data-name="Path 4478" d="M61.244,29.4a3.183,3.183,0,0,1,.872-2.3,2.974,2.974,0,0,1,2.225-.91,2.933,2.933,0,0,1,2.212.91,3.427,3.427,0,0,1,0,4.6,2.933,2.933,0,0,1-2.212.91,2.974,2.974,0,0,1-2.225-.91A3.185,3.185,0,0,1,61.244,29.4Zm1.13,0a2.205,2.205,0,0,0,.566,1.573,1.931,1.931,0,0,0,2.8,0,2.453,2.453,0,0,0,0-3.134,1.9,1.9,0,0,0-2.8,0A2.187,2.187,0,0,0,62.374,29.4Z" transform="translate(-30.519 -23.515)" fill="#03123a"/>
    <path id="Path_4479" data-name="Path 4479" d="M68.149,24.115v8.8h-1.13v-8.8Z" transform="translate(-29.129 -24.016)" fill="#03123a"/>
    <path id="Path_4480" data-name="Path 4480" d="M68.712,29.4a3.184,3.184,0,0,1,.874-2.3,2.971,2.971,0,0,1,2.224-.91,2.936,2.936,0,0,1,2.214.91,3.427,3.427,0,0,1,0,4.6,2.936,2.936,0,0,1-2.214.91,2.971,2.971,0,0,1-2.224-.91A3.186,3.186,0,0,1,68.712,29.4Zm1.132,0a2.21,2.21,0,0,0,.565,1.573,1.933,1.933,0,0,0,2.8,0,2.457,2.457,0,0,0,0-3.134,1.906,1.906,0,0,0-2.8,0A2.191,2.191,0,0,0,69.844,29.4Z" transform="translate(-28.721 -23.515)" fill="#03123a"/>
    <path id="Path_4481" data-name="Path 4481" d="M77.27,35.264a3.338,3.338,0,0,1-.947-.129,3.042,3.042,0,0,1-.805-.362,2.629,2.629,0,0,1-.62-.552,2.371,2.371,0,0,1-.393-.713l1.07-.443a1.7,1.7,0,0,0,.639.849,1.8,1.8,0,0,0,1.057.319,1.871,1.871,0,0,0,1.438-.552,2.149,2.149,0,0,0,.516-1.525v-.577h-.05a2.223,2.223,0,0,1-.866.756,2.587,2.587,0,0,1-1.186.277,2.663,2.663,0,0,1-2.027-.922,3.332,3.332,0,0,1-.836-2.286,3.291,3.291,0,0,1,.836-2.274,2.649,2.649,0,0,1,2.027-.933,2.587,2.587,0,0,1,1.186.277,2.213,2.213,0,0,1,.866.756h.05v-.836h1.082v5.764a3.076,3.076,0,0,1-.824,2.274A2.992,2.992,0,0,1,77.27,35.264Zm.037-3.686a1.732,1.732,0,0,0,1.364-.6,2.5,2.5,0,0,0,0-3.134,1.738,1.738,0,0,0-1.364-.614,1.764,1.764,0,0,0-1.365.614,2.244,2.244,0,0,0-.552,1.561,2.219,2.219,0,0,0,.552,1.561A1.764,1.764,0,0,0,77.308,31.578Z" transform="translate(-27.385 -23.515)" fill="#03123a"/>
    <path id="Path_4482" data-name="Path 4482" d="M81.73,24.834a.8.8,0,1,1-.233-.565A.771.771,0,0,1,81.73,24.834ZM81.5,26.911v6.023h-1.13V26.911Z" transform="translate(-25.971 -24.035)" fill="#03123a"/>
    <path id="Path_4483" data-name="Path 4483" d="M85.141,32.61a2.879,2.879,0,0,1-2.188-.91,3.213,3.213,0,0,1-.86-2.3,3.269,3.269,0,0,1,.835-2.292,3.005,3.005,0,0,1,4.271-.05,3.466,3.466,0,0,1,.793,2.427l-.012.123H83.249a1.957,1.957,0,0,0,.589,1.426,1.906,1.906,0,0,0,3.049-.541l1.008.493a3.006,3.006,0,0,1-1.124,1.191A3.115,3.115,0,0,1,85.141,32.61Zm-1.807-3.933h3.454a1.5,1.5,0,0,0-.511-1.037,1.778,1.778,0,0,0-1.235-.412,1.638,1.638,0,0,0-1.1.393A1.879,1.879,0,0,0,83.335,28.677Z" transform="translate(-25.498 -23.515)" fill="#03123a"/>
    <path id="Path_4484" data-name="Path 4484" d="M92.415,30.743a1.631,1.631,0,0,1-.689,1.326,2.715,2.715,0,0,1-1.732.541,2.754,2.754,0,0,1-1.6-.473,2.609,2.609,0,0,1-.983-1.248l1.008-.429a1.874,1.874,0,0,0,.645.841,1.567,1.567,0,0,0,.928.3,1.633,1.633,0,0,0,.9-.235.662.662,0,0,0,.362-.552q0-.577-.885-.849l-1.034-.258q-1.757-.441-1.757-1.695a1.565,1.565,0,0,1,.67-1.321,3.071,3.071,0,0,1,3.158-.117,2.071,2.071,0,0,1,.9,1.02l-1.009.418a1.267,1.267,0,0,0-.558-.6,1.761,1.761,0,0,0-.866-.215,1.451,1.451,0,0,0-.793.221.636.636,0,0,0-.351.541q0,.516.972.737l.91.233Q92.415,29.378,92.415,30.743Z" transform="translate(-24.218 -23.515)" fill="#03123a"/>
  </g>
  <g id="Group_148" data-name="Group 148" transform="translate(45.241 13.741)">
    <path id="Path_4485" data-name="Path 4485" d="M36.461,11.2h2.588v3.973l-.158,1.758h.158a3.212,3.212,0,0,1,1.2-1.137,3.466,3.466,0,0,1,1.748-.444,3.366,3.366,0,0,1,2.777,1.107,4.663,4.663,0,0,1,.9,3.024v5.87h-2.59V19.8a2.211,2.211,0,0,0-.474-1.532,1.7,1.7,0,0,0-1.324-.524,1.945,1.945,0,0,0-.949.227,2.129,2.129,0,0,0-.7.623,2.888,2.888,0,0,0-.434.919,4.061,4.061,0,0,0-.149,1.117v4.724H36.461Z" transform="translate(-36.461 -11.043)" fill="#03123a"/>
    <path id="Path_4486" data-name="Path 4486" d="M54.881,22.214a5.425,5.425,0,0,1-1.809,1.917,5.024,5.024,0,0,1-2.777.731,5.329,5.329,0,0,1-2.045-.385,4.879,4.879,0,0,1-2.707-2.707,5.4,5.4,0,0,1-.386-2.066,5.3,5.3,0,0,1,.376-1.987,5.012,5.012,0,0,1,2.638-2.757,4.866,4.866,0,0,1,2.026-.414,5.273,5.273,0,0,1,2.075.385A4.257,4.257,0,0,1,53.794,16a4.593,4.593,0,0,1,.928,1.611,6.209,6.209,0,0,1,.316,2.015v.238a1.272,1.272,0,0,0-.02.217A1.069,1.069,0,0,0,55,20.3H47.707a2.707,2.707,0,0,0,.326,1.017,2.453,2.453,0,0,0,.612.712,2.392,2.392,0,0,0,.8.414,3.13,3.13,0,0,0,.89.129,2.521,2.521,0,0,0,1.473-.406,2.944,2.944,0,0,0,.918-1.017ZM52.529,18.46a1.705,1.705,0,0,0-.168-.573,2.033,2.033,0,0,0-.436-.593,2.257,2.257,0,0,0-.711-.454A2.618,2.618,0,0,0,50.2,16.66a2.373,2.373,0,0,0-1.463.475,2.5,2.5,0,0,0-.89,1.324Z" transform="translate(-34.367 -10.238)" fill="#03123a"/>
    <path id="Path_4487" data-name="Path 4487" d="M54.459,25.352V11.2h2.59V25.352Z" transform="translate(-32.127 -11.043)" fill="#03123a"/>
    <path id="Path_4488" data-name="Path 4488" d="M58.329,25.352V11.2h2.59V25.352Z" transform="translate(-31.195 -11.043)" fill="#03123a"/>
    <path id="Path_4489" data-name="Path 4489" d="M71.4,22.214a5.433,5.433,0,0,1-1.808,1.917,5.027,5.027,0,0,1-2.777.731,5.335,5.335,0,0,1-2.046-.385A4.879,4.879,0,0,1,62.06,21.77a5.4,5.4,0,0,1-.386-2.066,5.3,5.3,0,0,1,.376-1.987,5.012,5.012,0,0,1,2.638-2.757,4.866,4.866,0,0,1,2.026-.414,5.273,5.273,0,0,1,2.075.385A4.235,4.235,0,0,1,70.311,16a4.593,4.593,0,0,1,.928,1.611,6.209,6.209,0,0,1,.316,2.015v.238a1.4,1.4,0,0,0-.019.217,1.069,1.069,0,0,0-.02.217H64.224a2.707,2.707,0,0,0,.326,1.017,2.457,2.457,0,0,0,.613.712,2.369,2.369,0,0,0,.8.414,3.115,3.115,0,0,0,.888.129,2.519,2.519,0,0,0,1.473-.406,2.96,2.96,0,0,0,.919-1.017ZM69.047,18.46a1.682,1.682,0,0,0-.169-.573,2.028,2.028,0,0,0-.434-.593,2.264,2.264,0,0,0-.712-.454,2.618,2.618,0,0,0-1.017-.179,2.373,2.373,0,0,0-1.463.475,2.488,2.488,0,0,0-.888,1.324Z" transform="translate(-30.39 -10.238)" fill="#03123a"/>
    <path id="Path_4490" data-name="Path 4490" d="M73.407,16.127h.159A3.285,3.285,0,0,1,74.79,14.97a3.588,3.588,0,0,1,1.759-.424,4.022,4.022,0,0,1,1.6.3,2.927,2.927,0,0,1,1.137.84,3.723,3.723,0,0,1,.673,1.3,5.943,5.943,0,0,1,.227,1.69v5.87H77.6V18.993a2.234,2.234,0,0,0-.464-1.552,1.754,1.754,0,0,0-1.354-.5,1.89,1.89,0,0,0-.939.227,2.188,2.188,0,0,0-.691.613,2.788,2.788,0,0,0-.436.91,4.11,4.11,0,0,0-.148,1.117v4.744h-2.59V14.862h2.431Z" transform="translate(-28.15 -10.238)" fill="#03123a"/>
    <path id="Path_4491" data-name="Path 4491" d="M81.6,14.394a1.647,1.647,0,0,1-.643-.129,1.623,1.623,0,0,1-.534-.356,1.682,1.682,0,0,1-.356-.524,1.727,1.727,0,0,1,0-1.3,1.682,1.682,0,0,1,.356-.524,1.682,1.682,0,0,1,2.361,0,1.643,1.643,0,0,1,0,2.351A1.629,1.629,0,0,1,81.6,14.394ZM80.319,25.383V15.7h2.59v9.684Z" transform="translate(-25.99 -11.074)" fill="#03123a"/>
    <path id="Path_4492" data-name="Path 4492" d="M93.462,22.076a5.4,5.4,0,0,1-1.769,2.005,4.894,4.894,0,0,1-2.835.78,5.4,5.4,0,0,1-2.066-.385,4.818,4.818,0,0,1-1.62-1.077A5.015,5.015,0,0,1,84.1,21.77a5.4,5.4,0,0,1-.386-2.066,5.459,5.459,0,0,1,.386-2.075,4.8,4.8,0,0,1,2.688-2.7,5.4,5.4,0,0,1,2.066-.385,4.955,4.955,0,0,1,2.827.771,4.566,4.566,0,0,1,1.679,2l-2.371.988a2.556,2.556,0,0,0-.86-1.017,2.335,2.335,0,0,0-1.314-.346,2.383,2.383,0,0,0-.968.2,2.484,2.484,0,0,0-.8.552,2.559,2.559,0,0,0-.543.87,3.43,3.43,0,0,0,0,2.293,2.547,2.547,0,0,0,.543.87,2.488,2.488,0,0,0,.8.553,2.4,2.4,0,0,0,.968.2,2.466,2.466,0,0,0,1.374-.366,2.546,2.546,0,0,0,.9-1.057Z" transform="translate(-25.081 -10.238)" fill="#03123a"/>
  </g>
  <path id="Path_4493" data-name="Path 4493" d="M11.589,11.216V36.352H37.274V11.216Zm8.6,18.85a.623.623,0,0,1-.623.623H18.005a.623.623,0,0,1-.623-.623V17.5a.623.623,0,0,1,.623-.623h1.557a.623.623,0,0,1,.623.623Zm11.3,0a.621.621,0,0,1-.623.623H29.3a.623.623,0,0,1-.623-.623v-4.08a.8.8,0,0,0-.8-.8H23.712a.622.622,0,0,1-.622-.623V23a.622.622,0,0,1,.622-.623h4.2a.765.765,0,0,0,.766-.766V17.5a.623.623,0,0,1,.623-.623h1.557a.607.607,0,0,1,.242.05.623.623,0,0,1,.381.573Z" transform="translate(2.791 2.701)" fill="#105dfd"/>
  <g id="Group_149" data-name="Group 149">
    <path id="Path_4494" data-name="Path 4494" d="M13.8,38.69l.761,2.351L12.557,39.52l-2.005,1.521.761-2.42L9.307,37.238H11.8l.761-2.351.761,2.351h2.42Z" transform="translate(2.241 8.401)" fill="#fecc2f"/>
    <path id="Path_4495" data-name="Path 4495" d="M23.164,41.2l.761,2.351-2.005-1.521L19.914,43.48l.761-2.351-2.005-1.383,2.489-.069.761-2.282.761,2.282H25.1Z" transform="translate(4.496 9.005)" fill="#fecc2f"/>
    <path id="Path_4496" data-name="Path 4496" d="M32.458,38.69l.83,2.351L31.282,39.52l-2.074,1.521.761-2.42-1.936-1.383h2.42l.83-2.351.691,2.351h2.42Z" transform="translate(6.75 8.401)" fill="#fecc2f"/>
    <path id="Path_4497" data-name="Path 4497" d="M6.933,31.891l.83,2.351L5.758,32.721,3.683,34.173l.761-2.351L2.508,30.37h2.42l.83-2.282.691,2.282H8.87Z" transform="translate(0.604 6.764)" fill="#fecc2f"/>
    <path id="Path_4498" data-name="Path 4498" d="M4.426,22.528l.83,2.351L3.25,23.358,1.176,24.81l.761-2.351L0,21.076l2.42-.069.83-2.282.691,2.282h2.42Z" transform="translate(0 4.509)" fill="#fecc2f"/>
    <path id="Path_4499" data-name="Path 4499" d="M13.8,6.353,14.562,8.7,12.557,7.183,10.552,8.7l.761-2.351L9.307,4.9H11.8l.761-2.282L13.318,4.9h2.42Z" transform="translate(2.241 0.631)" fill="#fecc2f"/>
    <path id="Path_4500" data-name="Path 4500" d="M6.933,13.152l.83,2.351L5.758,13.982,3.683,15.5l.761-2.351L2.508,11.7h2.42l.83-2.282L6.449,11.7H8.87Z" transform="translate(0.604 2.268)" fill="#fecc2f"/>
    <path id="Path_4501" data-name="Path 4501" d="M23.164,3.8l.761,2.351L21.919,4.633,19.914,6.085l.761-2.351L18.669,2.351l2.489-.069L21.919,0l.761,2.282H25.1Z" transform="translate(4.496)" fill="#fecc2f"/>
    <path id="Path_4502" data-name="Path 4502" d="M32.458,6.353l.83,2.351L31.282,7.183,29.208,8.7l.761-2.351L28.032,4.9h2.42l.83-2.282L31.974,4.9h2.42Z" transform="translate(6.75 0.631)" fill="#fecc2f"/>
  </g>
</svg>
